<svg width="45" height="45" viewBox="0 0 45 45" fill="none" xmlns="http://www.w3.org/2000/svg">
<path d="M32.8672 13.6147L34.802 15.5495L18.7004 31.6511L10.8538 23.8045L12.7886 21.8698L18.7004 27.7816L32.8672 13.6147ZM22.8279 0.82373C24.8486 0.82373 26.7977 1.0817 28.6752 1.59764C30.5526 2.11358 32.3083 2.85166 33.9421 3.81188C35.5759 4.7721 37.0592 5.91863 38.3921 7.25148C39.7249 8.58432 40.8714 10.0748 41.8316 11.723C42.7919 13.3711 43.5299 15.1267 44.0459 16.9898C44.5618 18.853 44.827 20.8021 44.8413 22.8372C44.8413 24.8579 44.5833 26.807 44.0674 28.6845C43.5514 30.5619 42.8134 32.3175 41.8531 33.9514C40.8929 35.5852 39.7464 37.0685 38.4136 38.4013C37.0807 39.7342 35.5902 40.8807 33.9421 41.8409C32.2939 42.8011 30.5383 43.5392 28.6752 44.0552C26.8121 44.5711 24.863 44.8362 22.8279 44.8506C20.8071 44.8506 18.858 44.5926 16.9806 44.0767C15.1031 43.5607 13.3475 42.8226 11.7137 41.8624C10.0799 40.9022 8.59654 39.7557 7.2637 38.4228C5.93085 37.09 4.78432 35.5995 3.8241 33.9514C2.86388 32.3032 2.1258 30.5547 1.60986 28.706C1.09392 26.8572 0.828785 24.9009 0.814453 22.8372C0.814453 20.8164 1.07242 18.8673 1.58836 16.9898C2.1043 15.1124 2.84238 13.3568 3.8026 11.723C4.76282 10.0891 5.90936 8.60582 7.2422 7.27297C8.57504 5.94013 10.0655 4.7936 11.7137 3.83338C13.3618 2.87316 15.1103 2.13508 16.9591 1.61914C18.8078 1.1032 20.7641 0.838062 22.8279 0.82373ZM22.8279 42.0989C24.5907 42.0989 26.289 41.8696 27.9228 41.411C29.5566 40.9524 31.0901 40.3074 32.5232 39.4762C33.9564 38.645 35.2606 37.6346 36.4358 36.4451C37.611 35.2555 38.6142 33.9585 39.4454 32.554C40.2767 31.1495 40.9288 29.616 41.4017 27.9536C41.8746 26.2911 42.104 24.5856 42.0896 22.8372C42.0896 21.0744 41.8603 19.3761 41.4017 17.7422C40.9431 16.1084 40.2982 14.575 39.4669 13.1418C38.6357 11.7086 37.6253 10.4044 36.4358 9.22925C35.2463 8.05405 33.9492 7.05083 32.5447 6.2196C31.1402 5.38836 29.6067 4.73627 27.9443 4.26333C26.2818 3.79038 24.5763 3.56108 22.8279 3.57541C21.0651 3.57541 19.3668 3.80471 17.733 4.26333C16.0992 4.72194 14.5657 5.36687 13.1325 6.1981C11.6993 7.02934 10.3952 8.03972 9.21997 9.22925C8.04477 10.4188 7.04156 11.7158 6.21032 13.1203C5.37909 14.5248 4.72699 16.0583 4.25405 17.7208C3.78111 19.3832 3.5518 21.0887 3.56613 22.8372C3.56613 24.5999 3.79544 26.2982 4.25405 27.9321C4.71266 29.5659 5.35759 31.0994 6.18882 32.5325C7.02006 33.9657 8.03044 35.2699 9.21997 36.4451C10.4095 37.6203 11.7065 38.6235 13.111 39.4547C14.5155 40.2859 16.049 40.938 17.7115 41.411C19.3739 41.8839 21.0794 42.1132 22.8279 42.0989Z" fill="#FBFDFC"/>
</svg>
