<svg width="44" height="49" viewBox="0 0 44 49" fill="none" xmlns="http://www.w3.org/2000/svg">
<path d="M8.65135 39.0873C8.02707 39.0873 8.02707 38.1461 8.65135 38.1461H29.5792C29.6464 36.7534 30.069 35.2455 30.626 33.8721C30.5492 33.7377 30.5492 33.5648 30.6356 33.4207L36.4847 23.2882V18.3804C36.4847 16.9109 35.3033 15.7296 33.8339 15.7296H27.7928L29.0029 16.9109C29.704 17.6024 29.4927 18.7741 28.5995 19.1775L26.9668 19.917C26.7843 20.0035 26.6787 20.1764 26.7075 20.3781L26.8804 22.1645L28.9741 27.2163C29.1278 27.5909 28.7628 27.9847 28.3594 27.831L26.0064 26.9474L24.9979 29.118C24.825 29.483 24.2872 29.4926 24.1239 29.0796L22.1742 24.3735C21.9341 24.7192 21.7516 25.065 21.3675 25.2667C20.7528 25.5932 19.9748 25.4107 19.5619 24.8153L19.2545 24.3735L17.3048 29.0796C17.1416 29.4926 16.6037 29.483 16.4405 29.118L15.4416 26.9474L13.0885 27.831C12.6948 27.9847 12.3202 27.5909 12.4835 27.2163L14.5676 22.1645L14.7405 20.3877C14.7501 20.2916 14.7309 20.1956 14.6829 20.1091C14.6348 20.0227 14.5676 19.9651 14.4716 19.9267L12.8388 19.1871C11.9456 18.7837 11.7343 17.612 12.4451 16.9205L13.6456 15.7392H5.92372V39.1545C5.92372 39.4138 5.71243 39.6251 5.45311 39.6251H3.31135C2.15883 39.6251 1.13117 40.1822 1.13117 41.3731C1.13117 41.8629 1.40009 42.2759 1.84188 42.5736C2.37012 42.929 3.10966 43.1307 3.93563 43.1307H30.7125H33.7186C34.7175 43.1403 35.7451 43.4092 36.4751 43.9855V31.6343L34.2373 35.5049C34.1508 35.6489 34.0068 35.7354 33.8435 35.7354C32.8446 37.0223 31.5769 38.2805 30.2515 39.02C30.1458 39.0777 30.0402 39.0777 29.9345 39.0777H8.65135V39.0873ZM8.65135 36.5902C8.02707 36.5902 8.02707 35.6489 8.65135 35.6489H27.082C27.6967 35.6489 27.6967 36.5902 27.082 36.5902H8.65135ZM8.65135 34.093C8.02707 34.093 8.02707 33.1518 8.65135 33.1518H27.082C27.6967 33.1518 27.6967 34.093 27.082 34.093H8.65135ZM18.0636 16.8917C17.7562 16.3538 18.563 15.8832 18.8703 16.4211L19.6579 17.7753L22.6448 14.7883C23.0866 14.3465 23.7493 15.0188 23.3075 15.451L19.8884 18.8798C19.6771 19.1007 19.3025 19.0527 19.1489 18.7837L18.0636 16.8917ZM20.7144 12.3104C23.2211 12.3104 25.2476 14.3369 25.2476 16.8437C25.2476 19.3504 23.2211 21.3769 20.7144 21.3769C18.2077 21.3769 16.1811 19.3504 16.1811 16.8437C16.1907 14.3369 18.2173 12.3104 20.7144 12.3104ZM23.2595 14.2985C21.8573 12.8963 19.5811 12.8963 18.1788 14.2985C16.7766 15.7008 16.7766 17.977 18.1788 19.3792C19.5811 20.7814 21.8573 20.7814 23.2595 19.3792C24.6618 17.977 24.6618 15.7008 23.2595 14.2985ZM21.1658 0.823658L21.7805 2.72531H23.7782C24.2296 2.72531 24.4216 3.31118 24.0567 3.57049L22.4336 4.74222L23.0578 6.64388C23.1923 7.06647 22.7025 7.46024 22.3087 7.1433L20.724 5.98118L19.1105 7.16251C18.7455 7.43143 18.2461 7.06647 18.3901 6.64388L19.0144 4.74222L17.3817 3.57049C17.0167 3.30157 17.1896 2.7061 17.689 2.72531H19.6579L20.2726 0.823658C20.407 0.391463 21.0313 0.391463 21.1658 0.823658ZM20.9929 3.33999L20.724 2.49481L20.4455 3.33999C20.3878 3.53208 20.2053 3.66654 20.0037 3.66654H19.1201C20.2534 4.4829 20.1669 4.23319 19.7347 5.55859C20.8584 4.73262 20.5895 4.73262 21.7228 5.55859C21.2906 4.23319 21.2042 4.4829 22.3375 3.66654H21.4731C21.2522 3.67614 21.0601 3.54168 20.9929 3.33999ZM32.0283 6.4806L32.6429 8.38226L34.6406 8.37265C35.092 8.37265 35.2841 8.95852 34.9192 9.21784L33.296 10.3896L33.9203 12.2912C34.0548 12.7234 33.565 13.1076 33.1712 12.7906L31.5865 11.6381L29.9729 12.8195C29.608 13.0884 29.1086 12.7234 29.2526 12.2912L29.8769 10.3896L28.2442 9.22744C27.8792 8.96812 28.0521 8.36305 28.5515 8.38226L30.5204 8.39186L31.1351 6.49021C31.2791 6.04841 31.8938 6.04841 32.0283 6.4806ZM31.8554 8.99694L31.5865 8.15175L31.3176 8.99694C31.2599 9.18902 31.0774 9.32348 30.8758 9.32348H29.9729C31.1063 10.1398 31.0198 9.89014 30.5876 11.2155C31.7113 10.3896 31.452 10.3896 32.5757 11.2155C32.1435 9.89014 32.0571 10.1398 33.1904 9.32348H32.326C32.1147 9.33309 31.9226 9.19863 31.8554 8.99694ZM10.3033 6.4806L10.918 8.38226L12.9157 8.37265C13.3671 8.37265 13.5592 8.95852 13.1942 9.21784L11.5711 10.3896L12.1953 12.2912C12.3298 12.7234 11.84 13.1076 11.4462 12.7906L9.86149 11.6381L8.24797 12.8195C7.883 13.0884 7.38358 12.7234 7.52764 12.2912L8.15192 10.3896L6.51919 9.22744C6.15423 8.96812 6.3271 8.36305 6.82653 8.38226L8.79541 8.39186L9.41009 6.49021C9.54455 6.04841 10.1592 6.04841 10.3033 6.4806ZM10.1304 8.99694L9.86149 8.15175L9.59257 8.99694C9.53495 9.18902 9.35246 9.32348 9.15077 9.32348H8.25757C9.39088 10.1398 9.30444 9.89014 8.87225 11.2155C9.99595 10.3896 9.73664 10.3896 10.8603 11.2155C10.4281 9.89014 10.3417 10.1398 11.475 9.32348H10.6106C10.3897 9.33309 10.188 9.19863 10.1304 8.99694ZM21.0986 24.287L22.107 22.808C22.4432 22.3085 23.0482 22.0876 23.6341 22.2509L25.3533 22.7311C25.6606 22.8176 25.9679 22.5774 25.9295 22.2509L25.7566 20.4645C25.699 19.869 26.016 19.312 26.5634 19.0623L28.2154 18.3131C28.4747 18.1979 28.5707 17.8137 28.3306 17.5832L27.0532 16.325C26.6114 15.8928 26.5154 15.2686 26.7747 14.7307L27.5527 13.1172C27.6871 12.8291 27.5046 12.4929 27.1781 12.4641L25.3917 12.3296C24.7866 12.2816 24.2968 11.8686 24.1431 11.2828L23.7013 9.55399C23.6245 9.24665 23.2595 9.10258 22.9906 9.29467L21.5307 10.3319C21.0409 10.6873 20.407 10.6873 19.9076 10.3319L18.4478 9.28507C18.1788 9.09298 17.8139 9.23704 17.737 9.54438L17.2952 11.2732C17.1416 11.859 16.6518 12.272 16.0467 12.32L14.2603 12.4545C13.9337 12.4833 13.7416 12.8195 13.8857 13.1076L14.6637 14.7211C14.923 15.259 14.8173 15.8928 14.3851 16.3154L13.1078 17.5736C12.8869 17.7945 12.9349 18.1691 13.2422 18.3131L14.875 19.0527C15.1439 19.1775 15.3648 19.3792 15.5088 19.6289C15.6529 19.8786 15.7201 20.1668 15.6817 20.4645L15.5088 22.2797C15.4992 22.5967 15.797 22.8176 16.0851 22.7311L17.8043 22.2509C18.3901 22.0876 18.9856 22.3085 19.3314 22.808L20.3494 24.287C20.5223 24.5559 20.9161 24.5463 21.0986 24.287ZM22.885 23.3362L22.8081 23.4418L24.5849 27.7446L25.3148 26.1503C25.4109 25.9294 25.6702 25.8237 25.9007 25.9101L27.6679 26.5728L26.3521 23.3746C25.9968 23.6627 25.5454 23.7588 25.1036 23.6339L23.3748 23.1537C23.1923 23.1057 23.0002 23.1729 22.885 23.3362ZM18.6302 23.4418C18.5054 23.2498 18.3613 23.0673 18.054 23.1537L16.3348 23.6339C15.893 23.7588 15.4416 23.6627 15.0862 23.3746L13.7608 26.5728L15.528 25.9101C15.7585 25.8237 16.0179 25.9294 16.1235 26.1503L16.8534 27.7446L18.6302 23.4418ZM13.6456 14.7787L13.0405 13.511C12.6179 12.6274 13.2134 11.5901 14.193 11.5229L15.9794 11.3884C16.1811 11.3692 16.3348 11.2443 16.3828 11.0523L16.8342 9.31388C17.0839 8.36305 18.198 7.95967 18.9952 8.52632L20.4551 9.56359C20.6183 9.67884 20.8296 9.67884 20.9833 9.56359L22.4432 8.52632C23.2403 7.95967 24.3544 8.35345 24.6041 9.31388L25.0459 11.0523C25.094 11.2443 25.2572 11.3788 25.4493 11.3884L27.2357 11.5229C28.2154 11.5997 28.8108 12.6274 28.3882 13.511L27.7832 14.7787H33.8243C35.8124 14.7787 37.4163 16.3923 37.4163 18.3708V21.6554L39.3372 18.3419C39.462 18.1114 39.7501 18.0442 39.9806 18.1691L40.2015 18.2939L41.21 16.5459C41.3445 16.3154 41.6326 16.2386 41.8727 16.3923L43.3902 17.2663C43.6207 17.4007 43.6879 17.6888 43.5631 17.9097L42.5546 19.6577L42.7755 19.7826C43.006 19.9171 43.0828 20.2052 42.9292 20.4453L37.4163 29.992V45.8103C37.4163 46.6555 36.9841 47.3374 36.2446 47.808C35.5531 48.2498 34.5926 48.4995 33.4881 48.4995H30.7029C30.4436 48.4995 30.2323 48.2882 30.2323 48.0289V44.0527H3.93563C2.18764 44.0527 0.189941 43.1787 0.189941 41.3539V13.0211C0.189941 11.302 1.63059 10.3319 3.31135 10.3319H5.45311C5.71243 10.3319 5.92372 10.5432 5.92372 10.8025V14.7787H13.6456ZM41.6806 20.2436L39.9134 19.2255L31.6825 33.488L33.6706 34.6309L41.9015 20.3685L41.6806 20.2436ZM42.5162 17.8521L41.7863 17.4295L41.0083 18.7645L41.7382 19.1871L42.5162 17.8521ZM30.7797 36.4365C30.6741 36.8879 30.5972 37.3201 30.5492 37.7235C31.4328 37.08 32.2684 36.2156 32.9887 35.3128L31.4136 34.4004C31.1447 35.1111 30.9238 35.793 30.7797 36.4365ZM4.97289 15.259V11.2828H3.31135C2.15883 11.2828 1.13117 11.8398 1.13117 13.0308V39.3754C1.68822 38.9336 2.44696 38.6839 3.31135 38.6839H4.97289V15.259ZM36.4751 45.8295C36.4751 44.6098 34.9384 44.1295 33.9299 44.0719L33.6706 44.0623H31.1735V47.5679H33.4881C34.4101 47.5679 35.1977 47.3758 35.7355 47.0301C36.2062 46.7419 36.4751 46.3289 36.4751 45.8295Z" fill="#017867"/>
</svg>
