<svg width="45" height="45" viewBox="0 0 45 45" fill="none" xmlns="http://www.w3.org/2000/svg">
<path d="M22.8494 40.4489C32.5353 40.4489 40.4601 32.524 40.4601 22.8381C40.4601 13.1522 32.5353 5.22739 22.8494 5.22739C13.1635 5.22739 5.23862 13.1522 5.23862 22.8381C5.23862 32.524 13.1635 40.4489 22.8494 40.4489ZM22.8494 0.824707C34.9567 0.824707 44.8628 10.7307 44.8628 22.8381C44.8628 34.9455 34.9567 44.8515 22.8494 44.8515C10.742 44.8515 0.835938 34.9455 0.835938 22.8381C0.835938 10.7307 10.742 0.824707 22.8494 0.824707ZM33.8561 27.0207L32.3151 29.8824L20.648 23.4985V11.8314H23.95V21.5173L33.8561 27.0207Z" fill="#FBFDFC"/>
</svg>
