<svg width="45" height="45" viewBox="0 0 45 45" fill="none" xmlns="http://www.w3.org/2000/svg">
<path fill-rule="evenodd" clip-rule="evenodd" d="M22.3187 44.8523C28.1575 44.8523 33.7571 42.5328 37.8857 38.4042C42.0143 34.2756 44.3337 28.676 44.3337 22.8373C44.3337 16.9985 42.0143 11.3989 37.8857 7.27031C33.7571 3.1417 28.1575 0.822266 22.3187 0.822266C16.48 0.822266 10.8804 3.1417 6.75176 7.27031C2.62314 11.3989 0.303711 16.9985 0.303711 22.8373C0.303711 28.676 2.62314 34.2756 6.75176 38.4042C10.8804 42.5328 16.48 44.8523 22.3187 44.8523ZM19.011 15.82C20.4199 13.9762 22.1343 13.2057 23.6946 13.2057C25.255 13.2057 26.9694 13.9762 28.3783 15.82C28.715 16.2418 29.2035 16.5151 29.7391 16.5811C30.2748 16.6471 30.815 16.5007 31.244 16.1732C31.673 15.8457 31.9566 15.3632 32.0341 14.829C32.1116 14.2949 31.9768 13.7517 31.6586 13.3158C29.5754 10.5914 26.7107 9.07789 23.6946 9.07789C20.6786 9.07789 17.8139 10.5914 15.7307 13.3158C14.8094 14.5327 14.0885 15.889 13.5953 17.3335H10.6232C10.0759 17.3335 9.5509 17.551 9.16384 17.938C8.77678 18.3251 8.55934 18.85 8.55934 19.3974C8.55934 19.9448 8.77678 20.4698 9.16384 20.8568C9.5509 21.2439 10.0759 21.4613 10.6232 21.4613H12.7422C12.6697 22.3772 12.6697 23.2973 12.7422 24.2132H10.6232C10.0759 24.2132 9.5509 24.4307 9.16384 24.8177C8.77678 25.2048 8.55934 25.7297 8.55934 26.2771C8.55934 26.8245 8.77678 27.3495 9.16384 27.7365C9.5509 28.1236 10.0759 28.341 10.6232 28.341H13.5953C14.0887 29.7854 14.8096 31.1417 15.7307 32.3588C17.8139 35.0831 20.6786 36.5966 23.6946 36.5966C26.7107 36.5966 29.5754 35.0831 31.6586 32.3588C31.9768 31.9228 32.1116 31.3796 32.0341 30.8455C31.9566 30.3114 31.673 29.8289 31.244 29.5014C30.815 29.1739 30.2748 29.0274 29.7391 29.0934C29.2035 29.1595 28.715 29.4327 28.3783 29.8545C26.9694 31.6983 25.255 32.4688 23.6946 32.4688C22.1343 32.4688 20.4199 31.6983 19.011 29.8545C18.6503 29.3803 18.3343 28.8736 18.0671 28.341H23.0067C23.5541 28.341 24.079 28.1236 24.4661 27.7365C24.8531 27.3495 25.0706 26.8245 25.0706 26.2771C25.0706 25.7297 24.8531 25.2048 24.4661 24.8177C24.079 24.4307 23.5541 24.2132 23.0067 24.2132H16.8865C16.7914 23.2984 16.7914 22.3762 16.8865 21.4613H23.0067C23.5541 21.4613 24.079 21.2439 24.4661 20.8568C24.8531 20.4698 25.0706 19.9448 25.0706 19.3974C25.0706 18.85 24.8531 18.3251 24.4661 17.938C24.079 17.551 23.5541 17.3335 23.0067 17.3335H18.0671C18.3367 16.7969 18.6505 16.2878 19.011 15.82Z" fill="#FBFDFC"/>
</svg>
