<svg width="37" height="49" viewBox="0 0 37 49" fill="none" xmlns="http://www.w3.org/2000/svg">
<path d="M34.6597 0.575684H3.49209C2.44963 0.575684 1.60742 1.42378 1.60742 2.46035V23.5097C1.60742 24.5463 2.44963 25.3943 3.49209 25.3943H4.20471C4.31075 23.7747 4.92915 22.2434 5.91859 21.0007H3.49209V2.46035H34.6597V21.0007H18.1748C19.1819 22.2552 19.7709 23.7806 19.871 25.3943H34.6597C35.7022 25.3943 36.5444 24.5463 36.5444 23.5097V2.46035C36.5444 1.42378 35.7022 0.575684 34.6597 0.575684Z" fill="white"/>
<path d="M24.312 29.4759C24.312 29.8057 24.0469 30.0766 23.7171 30.0766H19.8418C19.8418 29.5406 19.8536 28.9988 19.8594 28.4628C19.8712 27.8267 19.883 27.1907 19.883 26.5723H23.2106V28.8751H23.7171C24.0469 28.8751 24.312 29.146 24.312 29.4759Z" fill="white"/>
<path d="M18.4168 29.9058V31.9671C18.4168 32.2027 18.405 32.4383 18.3755 32.668C18.3402 31.066 18.4168 29.9058 18.4168 29.9058Z" fill="white"/>
<path d="M14.6187 30.9128C15.0184 30.9128 15.3425 30.5888 15.3425 30.1891C15.3425 29.7894 15.0184 29.4653 14.6187 29.4653C14.219 29.4653 13.895 29.7894 13.895 30.1891C13.895 30.5888 14.219 30.9128 14.6187 30.9128Z" fill="white"/>
<path d="M9.46005 30.9128C9.85975 30.9128 10.1838 30.5888 10.1838 30.1891C10.1838 29.7894 9.85975 29.4653 9.46005 29.4653C9.06035 29.4653 8.73633 29.7894 8.73633 30.1891C8.73633 30.5888 9.06035 30.9128 9.46005 30.9128Z" fill="white"/>
<path d="M12.0392 33.7787C12.4662 33.7787 12.8123 33.4325 12.8123 33.0055C12.8123 32.5786 12.4662 32.2324 12.0392 32.2324C11.6122 32.2324 11.2661 32.5786 11.2661 33.0055C11.2661 33.4325 11.6122 33.7787 12.0392 33.7787Z" fill="white"/>
<path d="M31.3831 4.01318H14.211C13.2567 4.01318 12.4863 4.78925 12.4863 5.73785V14.6027C12.4863 15.5512 13.2567 16.3274 14.211 16.3274H16.8843V18.9489C16.8843 19.4606 17.5052 19.7135 17.8674 19.3513L20.897 16.3274H31.3831C32.3374 16.3274 33.1078 15.5512 33.1078 14.6027V5.73785C33.1078 4.78925 32.3374 4.01318 31.3831 4.01318ZM21.4221 6.44055H25.2936V7.30288H21.4221V6.44055ZM17.1889 13.1738H15.0817V12.3114H17.1889V13.1738ZM17.225 10.2383H15.0817V9.37599H17.225V10.2383ZM15.0817 7.30288V6.44055H18.7085V7.30288H15.0817ZM20.7347 13.1738H18.4914V12.3114H20.7347V13.1738ZM18.9979 10.2383V9.37599H23.4845V10.2383H18.9979ZM26.2343 13.1738H22.7609V12.3114H26.2343V13.1738ZM30.5125 13.1738H27.9711V12.3114H30.5125V13.1738ZM30.5125 10.2383H26.3429V9.37599H30.5125V10.2383ZM30.5125 7.30288H27.1751V6.44055H30.5125V7.30288Z" fill="white"/>
<path d="M24.0764 44.8885C23.458 42.8213 22.2271 41.2606 20.4131 40.2358C20.2187 40.1298 20.0244 40.0238 19.83 39.9354C18.5284 39.3347 17.2916 39.1521 16.6732 39.0932C16.579 39.0814 16.0902 39.0755 14.818 39.0697V38.0272C14.9064 37.9859 14.9888 37.9389 15.0771 37.8976C16.473 37.9035 16.6791 37.9094 16.8028 37.9212C17.327 37.9742 18.287 38.1038 19.3824 38.4866C18.3643 34.8586 18.711 30.0394 18.711 25.8947C18.711 24.1101 18.016 22.4375 16.7557 21.1771C15.99 20.4056 15.03 19.8402 13.9758 19.5163C13.8345 18.5739 12.9157 17.8672 11.7849 17.8672C10.5952 17.8672 9.62339 18.68 9.57627 19.6988C7.04965 20.7001 5.36524 23.1619 5.36524 25.8947C5.37309 30.0593 5.67151 35.4729 4.54069 38.9636C6.69813 37.8331 8.47089 37.95 9.01089 37.8858C9.09335 37.9271 9.17578 37.9683 9.25824 38.0036V39.0638C8.99566 39.1031 6.53603 38.7249 3.87516 40.7717C2.51467 41.8201 1.53112 43.2395 1.03053 44.9062C1.02463 44.9357 1.00694 45.0181 0.983398 46.3374C0.983398 48.546 12.6624 48.5754 13.1571 48.5754C15.6955 48.5754 23.994 48.4164 24.1294 46.3374C24.1176 45.0122 24.0823 44.9121 24.0764 44.8885ZM14.229 39.3641C14.229 40.1062 13.6224 40.7128 12.8803 40.7128H11.1959C11.1017 40.7128 11.0133 40.7011 10.925 40.6834C9.45485 40.3865 9.92638 38.6488 9.8472 38.2569C11.2017 38.7084 12.5725 38.8197 14.229 38.2687V39.3641ZM5.97775 32.3379C5.99543 31.4898 5.97185 30.8066 5.9542 30.3472C8.35715 30.6652 6.53137 27.2198 10.713 26.8429C10.8366 26.8252 13.2455 26.519 14.2703 25.3352C14.5508 26.2613 15.025 27.2299 15.9311 27.5614C16.2138 27.5614 17.5036 28.3094 18.122 29.929C17.9873 32.4937 18.2028 32.3864 17.9395 33.4392C17.4919 35.2768 16.1903 36.8198 14.4057 37.5737C14.4057 37.5737 14.4057 37.5737 14.3998 37.5796C14.3998 37.5796 14.3998 37.5796 14.394 37.5796C10.6156 39.1992 6.37224 36.5663 5.97775 32.3379Z" fill="white"/>
<path d="M13.7389 36.0622L13.4411 35.6401C12.6676 36.1853 11.4106 36.1853 10.6372 35.6401L10.3394 36.0622C10.8159 36.3984 11.4273 36.5665 12.0392 36.5665C12.651 36.5665 13.2624 36.3984 13.7389 36.0622Z" fill="white"/>
</svg>
