<svg width="24" height="24" viewBox="0 0 24 24" fill="none" xmlns="http://www.w3.org/2000/svg">
<path d="M20.0134 3.60234C17.9027 1.51921 15.069 0.331834 12.1037 0.288086H11.8761C8.78693 0.288086 5.82434 1.51523 3.64 3.69957C1.45566 5.88391 0.228516 8.8465 0.228516 11.9356C0.228516 15.0247 1.45566 17.9873 3.64 20.1717C5.82434 22.356 8.78693 23.5832 11.8761 23.5832H12.0772C12.8686 23.5744 13.657 23.4857 14.4306 23.3184C16.3449 22.8906 18.1175 21.9792 19.5793 20.6713C19.8731 20.4066 20.159 20.1418 20.4317 19.8374C22.4201 17.6854 23.5244 14.863 23.5244 11.933C23.5244 9.00295 22.4201 6.18056 20.4317 4.02853C20.294 3.88559 20.1564 3.7294 20.0134 3.60234ZM22.4647 11.4062H19.0234C18.9574 9.80674 18.5985 8.23298 17.9645 6.76306C18.7037 6.31157 19.3901 5.77883 20.0108 5.17476C21.4843 6.93001 22.3457 9.11756 22.4647 11.4062ZM20.0293 18.7044C19.4086 18.1004 18.7222 17.5676 17.9831 17.1161C18.6116 15.6425 18.9642 14.066 19.0234 12.4651H22.4647C22.3489 14.7558 21.4892 16.9463 20.0161 18.7044H20.0293ZM1.30062 12.4651H5.00665C5.06645 14.0112 5.39893 15.5347 5.98875 16.9652C5.16802 17.4456 4.40963 18.0253 3.73072 18.6912C2.26626 16.9347 1.41327 14.7492 1.30062 12.4651ZM3.73072 5.17211C4.40917 5.8408 5.16758 6.42317 5.98875 6.906C5.39893 8.33653 5.06645 9.86 5.00665 11.4062H1.30062C1.41156 9.11927 2.26465 6.93079 3.73072 5.17211ZM11.3466 7.41955C9.97107 7.35005 8.62229 7.01286 7.37587 6.42687C8.30312 4.60957 9.66762 3.0513 11.3466 1.89227V7.41955ZM12.4055 1.71491C14.1744 2.86638 15.6175 4.45346 16.596 6.32363C15.2896 6.97378 13.8629 7.34689 12.4055 7.41955V1.71491ZM10.0866 1.50314C8.56423 2.69595 7.31802 4.20405 6.43348 5.9239C5.71265 5.49544 5.04606 4.98172 4.4481 4.39384L4.46398 4.37266L4.61752 4.23236C4.69693 4.15824 4.7737 4.08148 4.85576 4.01C4.93783 3.93853 4.96959 3.91471 5.02783 3.86441H5.04107L5.26343 3.67911L5.44608 3.53881L5.46991 3.52292C5.54138 3.46733 5.61285 3.41174 5.68697 3.3588C5.7611 3.30586 5.81404 3.2688 5.88022 3.22644C5.89145 3.21615 5.9039 3.20726 5.91728 3.19997L6.12376 3.05967L6.317 2.93525L6.37524 2.89819L6.57113 2.78172L6.77496 2.66789L6.84643 2.61759C6.90732 2.58583 6.9682 2.55141 7.03174 2.52229C7.09527 2.49318 7.16939 2.45082 7.23821 2.41906L7.33351 2.37405L7.50823 2.29199L7.71735 2.19934L7.82853 2.15434L7.9953 2.08551L8.20443 2.0061L8.33679 1.95845L8.49297 1.90286L8.7021 1.83403L8.85299 1.79168L9.00123 1.74668L9.22888 1.68844L9.3983 1.64873L9.52801 1.61167L9.73185 1.56667L9.92244 1.52961L10.0574 1.50578L10.0866 1.50314ZM6.9285 7.39044C8.31598 8.03826 9.81697 8.40789 11.3466 8.47842V11.4062H6.06552C6.12233 10.0282 6.41419 8.67009 6.9285 7.39044ZM11.3466 12.4651V15.3928C9.81697 15.4634 8.31598 15.833 6.9285 16.4808C6.41419 15.2012 6.12233 13.843 6.06552 12.4651H11.3466ZM11.3466 21.979C9.66762 20.8199 8.30312 19.2617 7.37587 17.4444C8.62229 16.8584 9.97107 16.5212 11.3466 16.4517V21.979ZM6.43348 17.9473C7.31732 19.6669 8.5626 21.1749 10.0839 22.3681H10.0574L9.93568 22.3443L9.7292 22.3072L9.53066 22.2596L9.40624 22.2305L9.22888 22.1802L9.02241 22.1246L8.89269 22.0849L8.72328 22.0346L8.51415 21.9684L8.37385 21.9181L8.22296 21.8651L8.01648 21.7857L7.85236 21.7301L7.72529 21.6772L7.51881 21.5872L7.35469 21.5104L7.24616 21.4654L7.04232 21.3648L6.86496 21.2695L6.77761 21.2007C6.71143 21.1636 6.6426 21.1292 6.57907 21.0895L6.38583 20.9757L6.317 20.936L6.12376 20.8142L5.91993 20.6766L5.87228 20.6448L5.68697 20.5151C5.61285 20.4648 5.54403 20.4092 5.47255 20.3563L5.44079 20.3324L5.25813 20.2027C5.17607 20.1392 5.0993 20.073 5.01989 20.0068L4.85576 19.8665C4.77105 19.7924 4.68899 19.7156 4.60693 19.6362C4.52487 19.5568 4.50899 19.5489 4.46398 19.5039C4.45646 19.4981 4.45017 19.4909 4.44545 19.4827C5.04394 18.8928 5.71144 18.3773 6.43348 17.9473ZM12.4055 16.4517C13.8629 16.5244 15.2896 16.8975 16.596 17.5476C15.6176 19.4172 14.1745 21.0034 12.4055 22.1537V16.4517ZM17.5172 18.0665C18.1627 18.4721 18.7626 18.946 19.3066 19.48L19.2881 19.4959L19.1531 19.6256C19.0711 19.7024 18.989 19.7818 18.9043 19.8559L18.7428 19.9936L18.5072 20.1948L18.3298 20.3324L18.0942 20.5098L17.9037 20.6422C17.8269 20.6977 17.7475 20.7533 17.6681 20.8036C17.5886 20.8539 17.5357 20.8883 17.4695 20.9307L17.2286 21.0763L17.0248 21.1928C16.9427 21.2404 16.8607 21.2854 16.776 21.3278L16.5668 21.4337L16.3021 21.5554L16.1115 21.6507L15.8468 21.7593L15.6271 21.844C15.5397 21.8784 15.4524 21.9101 15.3624 21.9393L15.14 22.016L14.8753 22.0981L14.6503 22.1616L14.3697 22.2305L14.1447 22.2834L14.0229 22.3072C15.4687 21.1508 16.6586 19.7067 17.5172 18.0665ZM17.0407 16.5867C15.5949 15.8721 14.0165 15.4656 12.4055 15.3928V12.4651H17.9645C17.9032 13.8828 17.5904 15.2784 17.0407 16.5867ZM12.4055 11.4062V8.47842C14.0165 8.40564 15.5949 7.9991 17.0407 7.28455C17.5904 8.59284 17.9032 9.98842 17.9645 11.4062H12.4055ZM17.5172 5.80478C16.6544 4.1642 15.4589 2.72164 14.007 1.56931L14.1976 1.60638L14.3617 1.64608L14.51 1.68314C14.5709 1.69903 14.6344 1.71226 14.6953 1.73079L14.8647 1.77844L15.0156 1.82609L15.185 1.87639L15.3571 1.93462L15.5159 1.99286L15.6668 2.04845L15.8415 2.11728L16.0056 2.1861L16.138 2.2417L16.3153 2.32111L16.4874 2.40317L16.6012 2.45876L16.7786 2.54877L16.956 2.64671L17.0513 2.69966L17.2286 2.7976L17.4166 2.91408L17.4933 2.96172L17.6654 3.07026L17.8639 3.20526L17.9222 3.24497L18.0916 3.36674C18.1631 3.41704 18.2293 3.46998 18.2981 3.52292L18.3431 3.55469L18.5046 3.68175L18.7243 3.86441L18.7507 3.88823L18.9043 4.02059C18.9863 4.09207 19.0658 4.16883 19.1452 4.24295C19.1902 4.28531 19.2378 4.32502 19.2802 4.37002L19.2987 4.3859C18.7574 4.92135 18.1602 5.39705 17.5172 5.80478Z" fill="#FBFDFC"/>
</svg>
