<svg width="81" height="108" viewBox="0 0 81 108" fill="none" xmlns="http://www.w3.org/2000/svg">
<path d="M40.3903 13.9413L47.0396 7.29199L40.3903 0.642703L33.741 7.29197L40.3903 13.9413Z" fill="#8F9196"/>
<path d="M48.7394 26.0721L55.3887 19.4229L48.7394 12.7736L42.0901 19.4228L48.7394 26.0721Z" fill="#8F9196"/>
<path d="M32.0387 26.0721L38.688 19.4229L32.0387 12.7736L25.3894 19.4229L32.0387 26.0721Z" fill="#8F9196"/>
<path d="M57.0919 37.2811L63.7412 30.6318L57.0919 23.9825L50.4427 30.6318L57.0919 37.2811Z" fill="#8F9196"/>
<path d="M40.3922 37.2821L47.0415 30.6328L40.3922 23.9835L33.7429 30.6328L40.3922 37.2821Z" fill="#8F9196"/>
<path d="M23.6891 37.2821L30.3384 30.6328L23.6891 23.9835L17.0398 30.6328L23.6891 37.2821Z" fill="#8F9196"/>
<path d="M65.443 49.412L72.0923 42.7627L65.443 36.1134L58.7937 42.7627L65.443 49.412Z" fill="#8F9196"/>
<path d="M48.7433 49.412L55.3926 42.7627L48.7433 36.1134L42.094 42.7627L48.7433 49.412Z" fill="#8F9196"/>
<path d="M32.0407 49.4125L38.6899 42.7632L32.0407 36.1139L25.3914 42.7632L32.0407 49.4125Z" fill="#8F9196"/>
<path d="M15.3395 49.4125L21.9888 42.7632L15.3395 36.1139L8.69019 42.7632L15.3395 49.4125Z" fill="#8F9196"/>
<path d="M73.7955 60.6219L80.4448 53.9727L73.7955 47.3234L67.1462 53.9727L73.7955 60.6219Z" fill="#8F9196"/>
<path d="M57.0915 60.6219L63.7407 53.9727L57.0914 47.3234L50.4422 53.9726L57.0915 60.6219Z" fill="#8F9196"/>
<path d="M40.3903 60.6224L47.0396 53.9731L40.3903 47.3239L33.741 53.9731L40.3903 60.6224Z" fill="#8F9196"/>
<path d="M23.6891 60.6224L30.3384 53.9731L23.6891 47.3239L17.0398 53.9731L23.6891 60.6224Z" fill="#8F9196"/>
<path d="M6.98695 60.6224L13.6362 53.9731L6.98694 47.3239L0.337662 53.9731L6.98695 60.6224Z" fill="#8F9196"/>
<path d="M65.443 72.7479L72.0923 66.0986L65.443 59.4493L58.7937 66.0986L65.443 72.7479Z" fill="#8F9196"/>
<path d="M48.7418 72.7513L55.3911 66.1021L48.7418 59.4528L42.0926 66.102L48.7418 72.7513Z" fill="#8F9196"/>
<path d="M32.0407 72.7523L38.6899 66.103L32.0407 59.4537L25.3914 66.103L32.0407 72.7523Z" fill="#8F9196"/>
<path d="M15.3395 72.7523L21.9888 66.103L15.3395 59.4537L8.69019 66.103L15.3395 72.7523Z" fill="#8F9196"/>
<path d="M57.0919 83.9623L63.7412 77.313L57.0919 70.6637L50.4427 77.313L57.0919 83.9623Z" fill="#8F9196"/>
<path d="M40.3922 83.9623L47.0415 77.313L40.3922 70.6637L33.7429 77.313L40.3922 83.9623Z" fill="#8F9196"/>
<path d="M23.6891 83.9633L30.3384 77.314L23.6891 70.6647L17.0398 77.314L23.6891 83.9633Z" fill="#8F9196"/>
<path d="M48.7394 96.0956L55.3887 89.4463L48.7394 82.797L42.0901 89.4463L48.7394 96.0956Z" fill="#8F9196"/>
<path d="M32.0387 96.0956L38.688 89.4463L32.0387 82.797L25.3894 89.4463L32.0387 96.0956Z" fill="#8F9196"/>
<path d="M40.3893 107.304L47.0386 100.654L40.3893 94.005L33.74 100.654L40.3893 107.304Z" fill="#8F9196"/>
</svg>
