<svg width="21" height="21" viewBox="0 0 21 21" fill="none" xmlns="http://www.w3.org/2000/svg">
<path d="M5.69321 0.730957H1.21498C1.00888 0.730957 0.841797 0.898038 0.841797 1.10414V5.58237C0.841797 5.78848 1.00888 5.95556 1.21498 5.95556H5.69321C5.89932 5.95556 6.0664 5.78848 6.0664 5.58237V1.10414C6.0664 0.898038 5.89932 0.730957 5.69321 0.730957Z" fill="#EEF2F7"/>
<path d="M12.785 0.730957H8.30678C8.10067 0.730957 7.93359 0.898038 7.93359 1.10414V5.58237C7.93359 5.78848 8.10067 5.95556 8.30678 5.95556H12.785C12.9911 5.95556 13.1582 5.78848 13.1582 5.58237V1.10414C13.1582 0.898038 12.9911 0.730957 12.785 0.730957Z" fill="#EEF2F7"/>
<path d="M19.8749 0.730957H15.3966C15.1905 0.730957 15.0234 0.898038 15.0234 1.10414V5.58237C15.0234 5.78848 15.1905 5.95556 15.3966 5.95556H19.8749C20.081 5.95556 20.248 5.78848 20.248 5.58237V1.10414C20.248 0.898038 20.081 0.730957 19.8749 0.730957Z" fill="#EEF2F7"/>
<path d="M5.69321 7.82178H1.21498C1.00888 7.82178 0.841797 7.98886 0.841797 8.19496V12.6732C0.841797 12.8793 1.00888 13.0464 1.21498 13.0464H5.69321C5.89932 13.0464 6.0664 12.8793 6.0664 12.6732V8.19496C6.0664 7.98886 5.89932 7.82178 5.69321 7.82178Z" fill="#EEF2F7"/>
<path d="M12.785 7.82178H8.30678C8.10067 7.82178 7.93359 7.98886 7.93359 8.19496V12.6732C7.93359 12.8793 8.10067 13.0464 8.30678 13.0464H12.785C12.9911 13.0464 13.1582 12.8793 13.1582 12.6732V8.19496C13.1582 7.98886 12.9911 7.82178 12.785 7.82178Z" fill="#EEF2F7"/>
<path d="M19.8749 7.82178H15.3966C15.1905 7.82178 15.0234 7.98886 15.0234 8.19496V12.6732C15.0234 12.8793 15.1905 13.0464 15.3966 13.0464H19.8749C20.081 13.0464 20.248 12.8793 20.248 12.6732V8.19496C20.248 7.98886 20.081 7.82178 19.8749 7.82178Z" fill="#EEF2F7"/>
<path d="M5.69321 14.9126H1.21498C1.00888 14.9126 0.841797 15.0797 0.841797 15.2858V19.764C0.841797 19.9701 1.00888 20.1372 1.21498 20.1372H5.69321C5.89932 20.1372 6.0664 19.9701 6.0664 19.764V15.2858C6.0664 15.0797 5.89932 14.9126 5.69321 14.9126Z" fill="#EEF2F7"/>
<path d="M12.785 14.9126H8.30678C8.10067 14.9126 7.93359 15.0797 7.93359 15.2858V19.764C7.93359 19.9701 8.10067 20.1372 8.30678 20.1372H12.785C12.9911 20.1372 13.1582 19.9701 13.1582 19.764V15.2858C13.1582 15.0797 12.9911 14.9126 12.785 14.9126Z" fill="#EEF2F7"/>
<path d="M19.8749 14.9126H15.3966C15.1905 14.9126 15.0234 15.0797 15.0234 15.2858V19.764C15.0234 19.9701 15.1905 20.1372 15.3966 20.1372H19.8749C20.081 20.1372 20.248 19.9701 20.248 19.764V15.2858C20.248 15.0797 20.081 14.9126 19.8749 14.9126Z" fill="#EEF2F7"/>
</svg>
