<svg width="26" height="26" viewBox="0 0 26 26" fill="none" xmlns="http://www.w3.org/2000/svg">
<path d="M12.6897 0.448242C9.3004 0.448242 8.87419 0.463854 7.54249 0.523179C6.21079 0.585627 5.30374 0.794827 4.50909 1.10394C3.67517 1.41669 2.92002 1.90858 2.29688 2.54493C1.66053 3.16806 1.16864 3.92322 0.855897 4.75714C0.54678 5.55022 0.336019 6.45884 0.275133 7.78585C0.215807 9.12067 0.200195 9.54532 0.200195 12.9394C0.200195 16.3303 0.215807 16.7549 0.275133 18.0866C0.33758 19.4167 0.54678 20.3238 0.855897 21.1185C1.17594 21.9396 1.60215 22.6359 2.29688 23.3307C2.99005 24.0254 3.68634 24.4532 4.50753 24.7716C5.30374 25.0808 6.20923 25.2915 7.53937 25.3524C8.87263 25.4117 9.29727 25.4273 12.6897 25.4273C16.0822 25.4273 16.5053 25.4117 17.8386 25.3524C19.1671 25.29 20.0773 25.0808 20.872 24.7716C21.7053 24.4587 22.4599 23.9668 23.0826 23.3307C23.7773 22.6359 24.2036 21.9396 24.5236 21.1185C24.8312 20.3238 25.0419 19.4167 25.1044 18.0866C25.1637 16.7549 25.1793 16.3303 25.1793 12.9378C25.1793 9.54532 25.1637 9.12068 25.1044 7.78742C25.0419 6.45884 24.8312 5.55022 24.5236 4.75714C24.2108 3.92322 23.719 3.16806 23.0826 2.54493C22.4595 1.90858 21.7043 1.41669 20.8704 1.10394C20.0742 0.794827 19.1656 0.584066 17.837 0.523179C16.5037 0.463854 16.0807 0.448242 12.6866 0.448242H12.6897ZM11.5704 2.69948H12.6913C16.026 2.69948 16.421 2.71041 17.7371 2.7713C18.9548 2.82594 19.6168 3.03046 20.057 3.20063C20.6393 3.427 21.0562 3.69865 21.4933 4.13578C21.9305 4.57292 22.2005 4.98819 22.4269 5.57208C22.5986 6.01078 22.8016 6.67272 22.8562 7.89045C22.9171 9.20654 22.9296 9.60152 22.9296 12.9347C22.9296 16.2678 22.9171 16.6644 22.8562 17.9804C22.8016 19.1982 22.5971 19.8586 22.4269 20.2988C22.2253 20.8404 21.9059 21.3304 21.4918 21.7336C21.0546 22.1707 20.6393 22.4408 20.0555 22.6672C19.6183 22.8389 18.9564 23.0418 17.7371 23.098C16.421 23.1574 16.026 23.1714 12.6913 23.1714C9.3566 23.1714 8.96005 23.1574 7.64397 23.098C6.42624 23.0418 5.76585 22.8389 5.32559 22.6672C4.7836 22.4662 4.29302 22.1473 3.8893 21.7336C3.47445 21.3302 3.15449 20.8395 2.95258 20.2973C2.78241 19.8586 2.57789 19.1966 2.52325 17.9789C2.46393 16.6628 2.45144 16.2678 2.45144 12.9315C2.45144 9.59528 2.46393 9.20342 2.52325 7.88733C2.57945 6.6696 2.78241 6.00765 2.95414 5.5674C3.18051 4.98507 3.45216 4.56823 3.8893 4.1311C4.32643 3.69396 4.74171 3.42388 5.32559 3.1975C5.76585 3.02577 6.42624 2.82282 7.64397 2.76662C8.79613 2.71353 9.24263 2.69792 11.5704 2.69636V2.69948ZM19.3576 4.77275C19.1608 4.77275 18.9659 4.81152 18.7841 4.88683C18.6022 4.96215 18.437 5.07255 18.2978 5.21172C18.1587 5.35089 18.0483 5.51611 17.9729 5.69795C17.8976 5.87979 17.8589 6.07468 17.8589 6.2715C17.8589 6.46831 17.8976 6.6632 17.9729 6.84504C18.0483 7.02688 18.1587 7.1921 18.2978 7.33127C18.437 7.47044 18.6022 7.58084 18.7841 7.65616C18.9659 7.73148 19.1608 7.77024 19.3576 7.77024C19.7551 7.77024 20.1363 7.61234 20.4174 7.33127C20.6984 7.0502 20.8564 6.66899 20.8564 6.2715C20.8564 5.874 20.6984 5.49279 20.4174 5.21172C20.1363 4.93065 19.7551 4.77275 19.3576 4.77275ZM12.6913 6.52441C11.8406 6.51114 10.9957 6.66724 10.2059 6.98362C9.41602 7.3 8.69702 7.77035 8.0907 8.36728C7.48439 8.96421 7.00289 9.67578 6.67422 10.4606C6.34555 11.2454 6.17629 12.0877 6.17629 12.9386C6.17629 13.7894 6.34555 14.6318 6.67422 15.4166C7.00289 16.2014 7.48439 16.9129 8.0907 17.5099C8.69702 18.1068 9.41602 18.5771 10.2059 18.8935C10.9957 19.2099 11.8406 19.366 12.6913 19.3527C14.3751 19.3265 15.9811 18.6391 17.1625 17.4391C18.344 16.2391 19.0062 14.6226 19.0062 12.9386C19.0062 11.2546 18.344 9.63807 17.1625 8.43804C15.9811 7.23801 14.3751 6.55068 12.6913 6.52441ZM12.6913 8.77409C13.2381 8.77409 13.7795 8.88179 14.2847 9.09103C14.7899 9.30028 15.2489 9.60697 15.6355 9.99361C16.0221 10.3802 16.3288 10.8392 16.5381 11.3444C16.7473 11.8496 16.855 12.391 16.855 12.9378C16.855 13.4846 16.7473 14.026 16.5381 14.5312C16.3288 15.0363 16.0221 15.4953 15.6355 15.882C15.2489 16.2686 14.7899 16.5753 14.2847 16.7846C13.7795 16.9938 13.2381 17.1015 12.6913 17.1015C11.587 17.1015 10.528 16.6628 9.74712 15.882C8.96628 15.1011 8.5276 14.0421 8.5276 12.9378C8.5276 11.8335 8.96628 10.7745 9.74712 9.99361C10.528 9.21276 11.587 8.77409 12.6913 8.77409Z" fill="#FBFDFC"/>
</svg>
