<svg width="25" height="24" viewBox="0 0 25 24" fill="none" xmlns="http://www.w3.org/2000/svg">
<path d="M22.2068 10.5329C22.139 10.5329 22.071 10.5192 22.0065 10.4914C21.8211 10.4114 21.7012 10.2288 21.7012 10.027V6.9251C21.7012 6.73893 21.8034 6.56794 21.9673 6.47966C22.1309 6.39088 22.3302 6.40023 22.4856 6.50268L24.4236 7.78031C24.5529 7.86555 24.6358 8.00517 24.6493 8.15922C24.6627 8.31326 24.6047 8.46503 24.4919 8.57101L22.5539 10.3953C22.458 10.4856 22.3333 10.5329 22.2068 10.5329ZM22.7127 7.86454V8.85608L23.3322 8.27279L22.7127 7.86454Z" fill="#FBFDFC"/>
<path d="M1.38138 23.6801C1.29892 23.6801 1.21646 23.6599 1.14133 23.6194C0.977678 23.5311 0.875488 23.3601 0.875488 23.1742V8.20213C0.875488 8.00028 0.995637 7.81765 1.18079 7.73772C1.36595 7.65779 1.58121 7.69548 1.72817 7.83384L11.0892 16.6482C11.2017 16.7542 11.2597 16.9062 11.2465 17.0603C11.2331 17.2143 11.1499 17.354 11.0204 17.4392L1.65937 23.5969C1.57539 23.652 1.47851 23.6801 1.38138 23.6801ZM1.88727 9.37327V22.2358L9.92917 16.9457L1.88727 9.37327Z" fill="#FBFDFC"/>
<path d="M24.1458 23.6804C24.0487 23.6804 23.9518 23.6525 23.8679 23.5972L14.5068 17.4392C14.3776 17.3542 14.2944 17.2146 14.2807 17.0603C14.2673 16.906 14.3252 16.7542 14.438 16.6482L23.7991 7.83384C23.946 7.69548 24.161 7.65779 24.3464 7.73772C24.5316 7.81765 24.6517 8.00028 24.6517 8.20213V23.1742C24.6517 23.3601 24.5495 23.5314 24.3859 23.6194C24.3108 23.6601 24.2283 23.6804 24.1458 23.6804ZM15.5981 16.9459L23.64 22.2361V9.37352L15.5981 16.9459Z" fill="#FBFDFC"/>
<path d="M24.145 23.68H1.38137C1.15777 23.68 0.960723 23.5333 0.896728 23.3193C0.832733 23.1051 0.916711 22.8744 1.10338 22.7515L12.4849 15.2638C12.6539 15.153 12.8722 15.153 13.0412 15.2638L24.4229 22.7515C24.6096 22.8744 24.6936 23.1051 24.6296 23.3193C24.5656 23.5333 24.3686 23.68 24.145 23.68ZM3.07105 22.6682H22.4555L12.7632 16.292L3.07105 22.6682Z" fill="#FBFDFC"/>
<path d="M3.31977 10.5326C3.1933 10.5326 3.06859 10.485 2.97273 10.395L1.03466 8.57072C0.922098 8.46474 0.864174 8.31297 0.877327 8.15893C0.890733 8.00488 0.973699 7.86526 1.10295 7.78002L3.04102 6.50239C3.19633 6.4002 3.3954 6.39109 3.55931 6.47937C3.72322 6.56765 3.82541 6.73864 3.82541 6.92481V10.0267C3.82541 10.2285 3.70551 10.4112 3.5201 10.4911C3.4556 10.5189 3.38756 10.5326 3.31977 10.5326ZM2.19441 8.2725L2.81388 8.85579V7.86425L2.19441 8.2725Z" fill="#FBFDFC"/>
<path d="M16.8401 3.88951H8.68916C8.46581 3.88951 8.26876 3.74305 8.20452 3.52906C8.14027 3.31507 8.22399 3.08438 8.41041 2.9612L12.4861 0.273902C12.6551 0.162606 12.8741 0.162606 13.0431 0.273902L17.1186 2.9612C17.305 3.08413 17.3887 3.31507 17.3245 3.52906C17.2602 3.74305 17.0634 3.88951 16.8401 3.88951ZM10.3753 2.87772H15.1539L12.7646 1.30238L10.3753 2.87772Z" fill="#FBFDFC"/>
<path d="M14.7836 17.5227C14.6873 17.5227 14.5906 17.4954 14.5057 17.4395L12.7629 16.2926L11.0201 17.4395C10.824 17.568 10.5655 17.5455 10.395 17.3851L2.97209 10.3952C2.87066 10.2996 2.81299 10.1663 2.81299 10.0269V3.38382C2.81299 3.10457 3.03963 2.87793 3.31888 2.87793H22.2066C22.4858 2.87793 22.7125 3.10457 22.7125 3.38382V10.0269C22.7125 10.1663 22.6548 10.2996 22.5534 10.3952L15.1304 17.3851C15.0341 17.4762 14.9091 17.5227 14.7836 17.5227ZM12.7629 15.1812C12.8597 15.1812 12.9566 15.209 13.0411 15.2644L14.728 16.3746L21.7007 9.80839V3.88971H3.82502V9.80839L10.798 16.3743L12.4846 15.2644C12.5691 15.209 12.666 15.1812 12.7629 15.1812Z" fill="#FBFDFC"/>
</svg>
