<svg width="114" height="113" viewBox="0 0 114 113" fill="none" xmlns="http://www.w3.org/2000/svg">
<path d="M91.4215 51.2632C91.1733 51.2632 90.9242 51.2132 90.6881 51.1113C90.0093 50.8187 89.5703 50.1501 89.5703 49.4111V38.0547C89.5703 37.3732 89.9444 36.7471 90.5445 36.4239C91.1437 36.0989 91.8734 36.1332 92.442 36.5082L99.5375 41.1858C100.011 41.4978 100.315 42.009 100.364 42.573C100.413 43.137 100.201 43.6926 99.7876 44.0806L92.6921 50.7594C92.3411 51.09 91.8845 51.2632 91.4215 51.2632ZM93.2736 41.4941V45.1243L95.5416 42.9888L93.2736 41.4941Z" fill="#017867"/>
<path d="M15.1763 99.3991C14.8744 99.3991 14.5726 99.325 14.2975 99.1768C13.6983 98.8536 13.3242 98.2276 13.3242 97.547V42.7323C13.3242 41.9933 13.7641 41.3247 14.442 41.032C15.1199 40.7394 15.9079 40.8774 16.446 41.384L50.7178 73.6545C51.1299 74.0425 51.3419 74.5991 51.2938 75.1631C51.2447 75.727 50.94 76.2382 50.4659 76.5503L16.1941 99.0944C15.8866 99.2963 15.532 99.3991 15.1763 99.3991ZM17.0285 47.02V94.1113L46.4708 74.7436L17.0285 47.02Z" fill="#017867"/>
<path d="M98.517 99.399C98.1614 99.399 97.8067 99.2972 97.4992 99.0944L63.2274 76.5493C62.7542 76.2382 62.4496 75.727 62.3995 75.1621C62.3505 74.5972 62.5625 74.0416 62.9756 73.6535L97.2473 41.383C97.7854 40.8764 98.5725 40.7384 99.2513 41.0311C99.9292 41.3237 100.369 41.9923 100.369 42.7313V97.546C100.369 98.2266 99.995 98.8536 99.3958 99.1759C99.1208 99.3249 98.8189 99.399 98.517 99.399ZM67.2225 74.7435L96.6648 94.1112V47.0199L67.2225 74.7435Z" fill="#017867"/>
<path d="M98.5165 99.3994H15.1763C14.3577 99.3994 13.6363 98.8623 13.402 98.0788C13.1677 97.2944 13.4751 96.4499 14.1586 95.9998L55.8278 68.5864C56.4464 68.1808 57.2456 68.1808 57.8642 68.5864L99.5343 95.9998C100.218 96.4499 100.525 97.2944 100.291 98.0788C100.057 98.8623 99.3352 99.3994 98.5165 99.3994ZM21.3624 95.6951H92.3314L56.8464 72.3509L21.3624 95.6951Z" fill="#017867"/>
<path d="M22.273 51.2631C21.81 51.2631 21.3534 51.089 21.0025 50.7593L13.907 44.0806C13.4949 43.6925 13.2828 43.1369 13.331 42.5729C13.38 42.0089 13.6838 41.4978 14.157 41.1857L21.2525 36.5081C21.8211 36.134 22.5499 36.1007 23.15 36.4239C23.7501 36.7471 24.1242 37.3731 24.1242 38.0547V49.411C24.1242 50.15 23.6853 50.8186 23.0065 51.1112C22.7703 51.2131 22.5212 51.2631 22.273 51.2631ZM18.153 42.9887L20.4209 45.1242V41.4941L18.153 42.9887Z" fill="#017867"/>
<path d="M71.7684 26.9417H41.9269C41.1092 26.9417 40.3878 26.4055 40.1526 25.622C39.9174 24.8386 40.2239 23.994 40.9064 23.543L55.8281 13.7045C56.4467 13.2971 57.2487 13.2971 57.8673 13.7045L72.788 23.543C73.4705 23.9931 73.7771 24.8386 73.5418 25.622C73.3066 26.4055 72.5861 26.9417 71.7684 26.9417ZM48.1001 23.2374H65.5953L56.8477 17.4699L48.1001 23.2374Z" fill="#017867"/>
<path d="M64.2459 76.8541C63.8931 76.8541 63.5393 76.7541 63.2282 76.5494L56.8476 72.3507L50.467 76.5494C49.7493 77.0199 48.8029 76.9375 48.1787 76.3503L21.0024 50.7595C20.6311 50.4094 20.4199 49.9214 20.4199 49.4111V25.0899C20.4199 24.0675 21.2497 23.2378 22.272 23.2378H91.4222C92.4445 23.2378 93.2743 24.0675 93.2743 25.0899V49.4111C93.2743 49.9214 93.0632 50.4094 92.6918 50.7595L65.5155 76.3503C65.1627 76.6837 64.7052 76.8541 64.2459 76.8541ZM56.8476 68.2815C57.2023 68.2815 57.5569 68.3834 57.8662 68.5862L64.0422 72.6507L89.57 48.611V26.942H24.1251V48.611L49.6539 72.6498L55.8289 68.5862C56.1382 68.3834 56.4929 68.2815 56.8476 68.2815Z" fill="#017867"/>
</svg>
