<svg width="46" height="37" viewBox="0 0 46 37" fill="none" xmlns="http://www.w3.org/2000/svg">
<path d="M22.734 0.575684C10.26 0.575684 0.112793 7.81446 0.112793 16.7337C0.112793 20.9348 2.37491 24.9419 6.38209 27.915L3.02123 34.2489C2.69807 34.8953 2.82734 35.6708 3.27976 36.1233C3.60292 36.4464 3.99071 36.5757 4.44313 36.5757C4.70166 36.5757 4.96019 36.5111 5.21872 36.3818L14.2672 31.6637C16.9171 32.5039 19.8255 32.8917 22.734 32.8917C35.2079 32.8917 45.3552 25.6529 45.3552 16.7337C45.3552 7.81446 35.2079 0.575684 22.734 0.575684ZM22.734 29.6601C19.8902 29.6601 17.111 29.2723 14.5257 28.4321C14.1379 28.3028 13.6855 28.3674 13.2977 28.5613L8.25642 31.2112L9.87222 28.1735C10.26 27.4626 10.0015 26.4931 9.29053 26.0407C5.41261 23.5847 3.34439 20.2884 3.34439 16.7337C3.34439 9.62416 12.0697 3.80728 22.734 3.80728C33.3983 3.80728 42.1236 9.62416 42.1236 16.7337C42.1236 23.8432 33.3983 29.6601 22.734 29.6601Z" fill="white"/>
<path d="M22.734 19.9651C24.5188 19.9651 25.9656 18.5183 25.9656 16.7336C25.9656 14.9488 24.5188 13.502 22.734 13.502C20.9493 13.502 19.5024 14.9488 19.5024 16.7336C19.5024 18.5183 20.9493 19.9651 22.734 19.9651Z" fill="white"/>
<path d="M30.8127 19.9651C32.5974 19.9651 34.0443 18.5183 34.0443 16.7336C34.0443 14.9488 32.5974 13.502 30.8127 13.502C29.0279 13.502 27.5811 14.9488 27.5811 16.7336C27.5811 18.5183 29.0279 19.9651 30.8127 19.9651Z" fill="white"/>
<path d="M14.6549 19.9651C16.4397 19.9651 17.8865 18.5183 17.8865 16.7336C17.8865 14.9488 16.4397 13.502 14.6549 13.502C12.8702 13.502 11.4233 14.9488 11.4233 16.7336C11.4233 18.5183 12.8702 19.9651 14.6549 19.9651Z" fill="white"/>
</svg>
