<svg width="26" height="26" viewBox="0 0 26 26" fill="none" xmlns="http://www.w3.org/2000/svg">
<rect x="0.524414" y="0.34082" width="25.1904" height="25.1904" rx="12.5952" fill="#FBFDFC"/>
<path d="M12.9485 7.43359C11.0492 7.43359 9.15139 7.99128 7.51034 9.10737H4.4082L5.80455 10.6261C5.16834 11.2057 4.72234 11.9643 4.52515 12.802C4.32795 13.6398 4.38879 14.5177 4.69966 15.3202C5.01053 16.1228 5.5569 16.8126 6.26699 17.2989C6.97708 17.7853 7.81767 18.0455 8.67835 18.0453C9.75376 18.0462 10.7896 17.6395 11.577 16.9072L12.9442 18.3953L14.3114 16.9086C15.0984 17.6402 16.1334 18.0464 17.208 18.0453C18.3397 18.0453 19.425 17.5958 20.2254 16.7957C21.0258 15.9956 21.4756 14.9104 21.476 13.7787C21.4766 13.1852 21.3531 12.5981 21.1134 12.0551C20.8736 11.5122 20.523 11.0254 20.0839 10.6261L21.4802 9.10737H18.3859C16.7827 8.01598 14.8879 7.43273 12.9485 7.43359ZM12.9442 8.82781C14.0333 8.82781 15.123 9.04335 16.1481 9.47015C14.3264 10.1673 12.9442 11.7976 12.9442 13.6969C12.9442 11.7969 11.5628 10.1673 9.74037 9.47015C10.7555 9.04704 11.8444 8.82897 12.9442 8.82852V8.82781ZM8.67764 10.8921C9.0568 10.8921 9.43226 10.9668 9.78256 11.1119C10.1329 11.257 10.4512 11.4697 10.7193 11.7378C10.9874 12.0059 11.2001 12.3242 11.3452 12.6745C11.4903 13.0248 11.5649 13.4002 11.5649 13.7794C11.5649 14.1586 11.4903 14.534 11.3452 14.8843C11.2001 15.2346 10.9874 15.5529 10.7193 15.8211C10.4512 16.0892 10.1329 16.3018 9.78256 16.4469C9.43226 16.592 9.0568 16.6667 8.67764 16.6667C7.91188 16.6667 7.17748 16.3625 6.636 15.8211C6.09453 15.2796 5.79033 14.5452 5.79033 13.7794C5.79033 13.0137 6.09453 12.2793 6.636 11.7378C7.17748 11.1963 7.91188 10.8921 8.67764 10.8921ZM17.208 10.8935C17.587 10.8934 17.9623 10.9679 18.3126 11.1128C18.6628 11.2577 18.9811 11.4702 19.2492 11.7381C19.5173 12.006 19.73 12.3241 19.8752 12.6743C20.0203 13.0244 20.0951 13.3997 20.0953 13.7787C20.0954 14.1577 20.0209 14.5331 19.876 14.8833C19.7311 15.2335 19.5186 15.5518 19.2507 15.8199C18.9828 16.088 18.6647 16.3007 18.3145 16.4459C17.9644 16.5911 17.5891 16.6659 17.2101 16.666C16.4446 16.6663 15.7104 16.3625 15.1689 15.8214C14.6274 15.2803 14.3231 14.5463 14.3228 13.7808C14.3225 13.0154 14.6263 12.2811 15.1674 11.7396C15.7085 11.1982 16.4425 10.8938 17.208 10.8935ZM8.67764 12.2664C8.27617 12.2664 7.89115 12.4259 7.60727 12.7098C7.3234 12.9936 7.16392 13.3787 7.16392 13.7801C7.16392 14.1816 7.3234 14.5666 7.60727 14.8505C7.89115 15.1344 8.27617 15.2938 8.67764 15.2938C9.0791 15.2938 9.46412 15.1344 9.748 14.8505C10.0319 14.5666 10.1914 14.1816 10.1914 13.7801C10.1914 13.3787 10.0319 12.9936 9.748 12.7098C9.46412 12.4259 9.0791 12.2664 8.67764 12.2664ZM17.208 12.2664C16.8065 12.2664 16.4215 12.4259 16.1376 12.7098C15.8537 12.9936 15.6942 13.3787 15.6942 13.7801C15.6942 14.1816 15.8537 14.5666 16.1376 14.8505C16.4215 15.1344 16.8065 15.2938 17.208 15.2938C17.6094 15.2938 17.9945 15.1344 18.2783 14.8505C18.5622 14.5666 18.7217 14.1816 18.7217 13.7801C18.7217 13.3787 18.5622 12.9936 18.2783 12.7098C17.9945 12.4259 17.6094 12.2664 17.208 12.2664Z" fill="#017867"/>
</svg>
