<svg width="55" height="35" viewBox="0 0 55 35" fill="none" xmlns="http://www.w3.org/2000/svg">
<path d="M27.385 0.025882C21.3533 0.025882 15.3261 1.79699 10.1145 5.34146H0.262695L4.69724 10.1646C2.67675 12.0054 1.26034 14.4144 0.634086 17.075C0.00783587 19.7357 0.201035 22.5235 1.1883 25.0723C2.17557 27.6211 3.91073 29.8117 6.16584 31.3563C8.42095 32.9008 11.0905 33.7271 13.8239 33.7266C17.2392 33.7296 20.5287 32.438 23.0296 30.1121L27.3715 34.8381L31.7134 30.1166C34.2128 32.4401 37.4998 33.73 40.9123 33.7266C44.5064 33.7266 47.9533 32.2992 50.4951 29.7582C53.0369 27.2173 54.4655 23.7708 54.4667 20.1767C54.4688 18.2918 54.0766 16.4273 53.3152 14.7031C52.5538 12.9788 51.4401 11.4328 50.0457 10.1646L54.4803 5.34146H44.6533C39.5618 1.87542 33.5444 0.023127 27.385 0.025882ZM27.3715 4.45365C30.8301 4.45365 34.291 5.13815 37.5463 6.49359C31.7608 8.70747 27.3715 13.8852 27.3715 19.917C27.3715 13.883 22.9844 8.70747 17.1966 6.49359C20.4206 5.14986 23.8787 4.45734 27.3715 4.45591V4.45365ZM13.8216 11.0095C15.0258 11.0095 16.2181 11.2466 17.3306 11.7074C18.4431 12.1683 19.454 12.8437 20.3055 13.6952C21.1569 14.5466 21.8323 15.5575 22.2932 16.67C22.754 17.7825 22.9911 18.9748 22.9911 20.179C22.9911 21.3832 22.754 22.5755 22.2932 23.688C21.8323 24.8005 21.1569 25.8114 20.3055 26.6629C19.454 27.5143 18.4431 28.1897 17.3306 28.6506C16.2181 29.1114 15.0258 29.3485 13.8216 29.3485C11.3897 29.3485 9.05738 28.3825 7.33776 26.6629C5.61813 24.9432 4.65206 22.6109 4.65206 20.179C4.65206 17.7471 5.61813 15.4148 7.33776 13.6952C9.05738 11.9755 11.3897 11.0095 13.8216 11.0095ZM40.9123 11.014C42.116 11.0135 43.308 11.2502 44.4203 11.7104C45.5326 12.1706 46.5433 12.8454 47.3948 13.6963C48.2462 14.5471 48.9218 15.5573 49.3828 16.6693C49.8439 17.7812 50.0814 18.973 50.0819 20.1767C50.0823 21.3805 49.8457 22.5725 49.3854 23.6847C48.9252 24.797 48.2504 25.8077 47.3996 26.6592C46.5487 27.5107 45.5385 28.1862 44.4266 28.6473C43.3146 29.1083 42.1228 29.3458 40.9191 29.3463C38.4881 29.3472 36.1563 28.3823 34.4366 26.664C32.717 24.9456 31.7504 22.6145 31.7495 20.1835C31.7486 17.7525 32.7135 15.4207 34.4319 13.7011C36.1502 11.9815 38.4813 11.0149 40.9123 11.014ZM13.8216 15.374C12.5466 15.374 11.3239 15.8805 10.4223 16.782C9.52079 17.6835 9.01431 18.9063 9.01431 20.1813C9.01431 21.4562 9.52079 22.679 10.4223 23.5805C11.3239 24.4821 12.5466 24.9886 13.8216 24.9886C15.0966 24.9886 16.3193 24.4821 17.2209 23.5805C18.1224 22.679 18.6289 21.4562 18.6289 20.1813C18.6289 18.9063 18.1224 17.6835 17.2209 16.782C16.3193 15.8805 15.0966 15.374 13.8216 15.374ZM40.9123 15.374C39.6373 15.374 38.4146 15.8805 37.513 16.782C36.6115 17.6835 36.105 18.9063 36.105 20.1813C36.105 21.4562 36.6115 22.679 37.513 23.5805C38.4146 24.4821 39.6373 24.9886 40.9123 24.9886C42.1873 24.9886 43.41 24.4821 44.3116 23.5805C45.2131 22.679 45.7196 21.4562 45.7196 20.1813C45.7196 18.9063 45.2131 17.6835 44.3116 16.782C43.41 15.8805 42.1873 15.374 40.9123 15.374Z" fill="#FBFDFC"/>
</svg>
