<svg width="40" height="41" viewBox="0 0 40 41" fill="none" xmlns="http://www.w3.org/2000/svg">
<path d="M36.7635 34.7591L34.4527 38.9153C34.4089 38.9986 34.354 39.0755 34.2894 39.1439C30.9252 42.0671 21.4289 39.0867 11.3529 29.0189C1.27687 18.951 -1.71165 9.42205 1.23604 6.08242C1.3009 6.01721 1.37522 5.96215 1.45651 5.91911L5.61267 3.60832C5.80285 3.50328 6.02582 3.47437 6.23651 3.52742C6.4472 3.58047 6.62989 3.71153 6.74765 3.89411L12.1531 12.2554C12.2692 12.4381 12.3126 12.6576 12.2748 12.8708C12.2371 13.0839 12.1208 13.2751 11.949 13.4067L9.03395 15.6359C8.46542 16.0674 8.07664 16.694 7.94247 17.395C7.8083 18.096 7.93823 18.8218 8.30723 19.4328C9.87548 22.005 11.751 24.3767 13.8923 26.4958C16.0114 28.6371 18.3831 30.5126 20.9553 32.0809C21.5663 32.4499 22.2921 32.5798 22.9932 32.4456C23.6942 32.3115 24.3207 31.9227 24.7522 31.3542L26.9814 28.4391C27.1101 28.2689 27.2972 28.1523 27.5067 28.1116C27.7161 28.0709 27.9333 28.109 28.1164 28.2187L36.4613 33.6241C36.6467 33.7393 36.7811 33.9209 36.8373 34.1318C36.8934 34.3426 36.867 34.567 36.7635 34.7591Z" fill="white"/>
<path d="M33.2521 7.11946C29.8955 3.68558 25.4628 1.5067 20.6938 0.946462C20.5605 0.930633 20.4254 0.94168 20.2965 0.978947C20.1675 1.01621 20.0474 1.07895 19.9431 1.16344C19.8388 1.24793 19.7525 1.35247 19.6893 1.47087C19.6261 1.58928 19.5873 1.71915 19.5751 1.85282C19.5477 2.12121 19.6276 2.38955 19.7975 2.59917C19.9673 2.8088 20.2132 2.94265 20.4815 2.97147C24.786 3.48517 28.7852 5.45598 31.815 8.55656C34.9156 11.5863 36.8864 15.5855 37.4001 19.8901C37.4263 20.1406 37.5442 20.3725 37.7311 20.5414C37.918 20.7102 38.1607 20.8039 38.4126 20.8046H38.5187C38.6524 20.7924 38.7823 20.7536 38.9007 20.6904C39.0191 20.6272 39.1236 20.5409 39.2081 20.4366C39.2926 20.3323 39.3553 20.2122 39.3926 20.0832C39.4299 19.9543 39.4409 19.8192 39.4251 19.6859C38.8666 14.914 36.6876 10.4781 33.2521 7.11946Z" fill="white"/>
<path d="M20.433 8.64642C23.2358 9.16755 25.815 10.5255 27.8308 12.5413C29.8466 14.5571 31.2045 17.1363 31.7257 19.9391C31.7626 20.1793 31.8841 20.3985 32.0682 20.5571C32.2523 20.7158 32.487 20.8036 32.73 20.8046H32.8933C33.1541 20.7568 33.3858 20.6085 33.5385 20.3917C33.6912 20.1749 33.7527 19.9068 33.7098 19.6451C33.1319 16.4171 31.5835 13.4419 29.2712 11.1165C26.9589 8.79104 23.9925 7.22582 20.7678 6.62958C20.504 6.59637 20.2377 6.6674 20.0255 6.82754C19.8133 6.98768 19.6719 7.22429 19.6315 7.48705C19.5911 7.74981 19.6548 8.01798 19.809 8.2345C19.9633 8.45102 20.1959 8.5988 20.4575 8.64642H20.433Z" fill="white"/>
<path d="M20.3268 14.4111C21.6567 14.8172 22.8662 15.5443 23.8488 16.5283C24.8313 17.5122 25.5567 18.7228 25.9609 20.0533C26.0213 20.269 26.1505 20.4591 26.3289 20.5947C26.5072 20.7303 26.7249 20.8039 26.9489 20.8045C27.0356 20.816 27.1235 20.816 27.2102 20.8045C27.3402 20.7695 27.462 20.7092 27.5685 20.6269C27.6751 20.5447 27.7643 20.4422 27.8311 20.3253C27.8979 20.2084 27.9409 20.0795 27.9577 19.9459C27.9744 19.8124 27.9646 19.6768 27.9287 19.5471C27.4329 17.8724 26.5263 16.3482 25.2913 15.1133C24.0564 13.8783 22.5322 12.9717 20.8575 12.4759C20.7257 12.4323 20.5864 12.4161 20.4481 12.4282C20.3098 12.4403 20.1755 12.4806 20.0532 12.5464C19.931 12.6122 19.8235 12.7023 19.7373 12.8111C19.6511 12.9199 19.588 13.0452 19.5518 13.1792C19.5157 13.3132 19.5072 13.4532 19.527 13.5906C19.5469 13.728 19.5945 13.86 19.667 13.9783C19.7396 14.0967 19.8355 14.199 19.9489 14.279C20.0624 14.3591 20.191 14.4151 20.3268 14.4437V14.4111Z" fill="white"/>
</svg>
