<svg width="24" height="24" viewBox="0 0 24 24" fill="none" xmlns="http://www.w3.org/2000/svg">
<path d="M14.6721 1.55731C14.6968 1.46488 14.7394 1.37821 14.7976 1.30226C14.8557 1.22631 14.9283 1.16257 15.0111 1.11468C15.0939 1.0668 15.1854 1.03571 15.2802 1.02318C15.375 1.01066 15.4714 1.01696 15.5638 1.04171C17.3219 1.50031 18.926 2.41934 20.2108 3.70411C21.4955 4.98888 22.4146 6.59294 22.8732 8.35105C22.8979 8.44346 22.9042 8.53983 22.8917 8.63467C22.8792 8.72951 22.8481 8.82095 22.8002 8.90377C22.7523 8.98658 22.6886 9.05914 22.6126 9.11731C22.5367 9.17547 22.45 9.21809 22.3576 9.24273C22.2962 9.25907 22.233 9.26723 22.1695 9.267C22.0092 9.26709 21.8532 9.21423 21.726 9.1166C21.5988 9.01898 21.5073 8.88207 21.4659 8.72714C21.0722 7.21697 20.2829 5.83911 19.1793 4.73557C18.0758 3.63202 16.6979 2.84271 15.1877 2.44899C15.0953 2.42434 15.0086 2.38172 14.9327 2.32356C14.8567 2.2654 14.793 2.19283 14.7451 2.11002C14.6972 2.02721 14.6661 1.93577 14.6536 1.84093C14.6411 1.74609 14.6474 1.64971 14.6721 1.55731ZM14.2172 6.33113C15.9824 6.80184 17.113 7.93251 17.5837 9.69767C17.6252 9.8526 17.7166 9.98951 17.8439 10.0871C17.9711 10.1848 18.127 10.2376 18.2874 10.2375C18.3509 10.2378 18.4141 10.2296 18.4754 10.2133C18.5679 10.1886 18.6545 10.146 18.7305 10.0878C18.8064 10.0297 18.8702 9.95712 18.9181 9.8743C18.9659 9.79149 18.997 9.70005 19.0096 9.60521C19.0221 9.51037 19.0158 9.41399 18.991 9.32159C18.3844 7.05175 16.8631 5.53044 14.5933 4.92385C14.5009 4.89916 14.4045 4.89291 14.3097 4.90545C14.2149 4.918 14.1235 4.9491 14.0407 4.99698C13.9579 5.04486 13.8853 5.10857 13.8271 5.18449C13.769 5.26041 13.7263 5.34705 13.7016 5.43945C13.6769 5.53185 13.6707 5.62821 13.6832 5.72303C13.6958 5.81785 13.7269 5.90927 13.7747 5.99207C13.8226 6.07487 13.8863 6.14743 13.9622 6.20561C14.0382 6.26378 14.1248 6.30643 14.2172 6.33113ZM23.8546 18.0989C23.6468 19.6848 22.8685 21.1407 21.6653 22.1945C20.4621 23.2484 18.9163 23.828 17.3169 23.825C7.81774 23.825 0.0898558 16.0971 0.0898558 6.59803C0.0867917 4.99912 0.665892 3.45378 1.71899 2.25066C2.77208 1.04754 4.22714 0.268924 5.81237 0.060258C6.17729 0.0159113 6.54675 0.0911562 6.86526 0.274692C7.18376 0.458227 7.43413 0.740146 7.57875 1.07811L10.1385 6.79213C10.2516 7.05081 10.2983 7.33359 10.2746 7.61488C10.2509 7.89618 10.1574 8.16712 10.0027 8.40322C9.98705 8.42725 9.97004 8.45034 9.9517 8.47237L7.39556 11.5126C7.38004 11.5441 7.37197 11.5787 7.37197 11.6139C7.37197 11.649 7.38004 11.6837 7.39556 11.7152C8.32485 13.6174 10.3193 15.5973 12.2482 16.5254C12.2804 16.5401 12.3156 16.5471 12.351 16.5458C12.3864 16.5445 12.421 16.5351 12.452 16.5181L15.4474 13.9705C15.4687 13.9518 15.4914 13.9348 15.5153 13.9195C15.7503 13.7628 16.0208 13.6672 16.3021 13.6413C16.5834 13.6155 16.8667 13.6602 17.1264 13.7715L22.8574 16.3398C23.1909 16.4876 23.4679 16.7388 23.6475 17.0562C23.8271 17.3737 23.8997 17.7406 23.8546 18.1025V18.0989ZM22.4122 17.9193C22.4162 17.8686 22.4042 17.8179 22.3779 17.7743C22.3516 17.7308 22.3122 17.6966 22.2654 17.6767L16.5331 15.1084C16.5018 15.0963 16.4683 15.0912 16.4348 15.0932C16.4013 15.0953 16.3686 15.1046 16.339 15.1205L13.3449 17.6682C13.3231 17.6864 13.3 17.7034 13.277 17.7191C13.0328 17.882 12.7505 17.9788 12.4577 18C12.165 18.0213 11.8717 17.9663 11.6065 17.8405C9.37909 16.7644 7.15899 14.5649 6.08291 12.3582C5.95635 12.0945 5.90001 11.8026 5.91935 11.5108C5.93869 11.219 6.03305 10.9371 6.19331 10.6925C6.20893 10.6681 6.22637 10.645 6.24547 10.6233L8.79919 7.57948C8.81379 7.5477 8.82135 7.51315 8.82135 7.47818C8.82135 7.44321 8.81379 7.40865 8.79919 7.37688L6.24547 1.66164C6.22861 1.61574 6.19828 1.57601 6.15844 1.54765C6.11861 1.51929 6.07114 1.50363 6.02225 1.50272H5.99435C4.76049 1.66685 3.62854 2.27446 2.8099 3.2121C1.99125 4.14974 1.54186 5.3533 1.54566 6.59803C1.54566 15.294 8.62086 22.3692 17.3169 22.3692C18.5618 22.373 19.7655 21.9234 20.7031 21.1045C21.6408 20.2856 22.2483 19.1534 22.4122 17.9193Z" fill="#FBFDFC"/>
</svg>
