<svg width="88" height="87" viewBox="0 0 88 87" fill="none" xmlns="http://www.w3.org/2000/svg">
<path d="M53.6717 5.54259C53.7616 5.20545 53.9171 4.88934 54.1292 4.61233C54.3413 4.33532 54.606 4.10284 54.9081 3.92819C55.2101 3.75354 55.5436 3.64013 55.8895 3.59446C56.2354 3.5488 56.5869 3.57176 56.924 3.66204C63.3364 5.33471 69.1869 8.68669 73.8729 13.3727C78.5589 18.0586 81.9108 23.9092 83.5835 30.3216C83.6738 30.6586 83.6968 31.0101 83.6511 31.356C83.6054 31.7019 83.492 32.0354 83.3174 32.3375C83.1427 32.6395 82.9102 32.9042 82.6332 33.1163C82.3562 33.3285 82.0401 33.4839 81.703 33.5738C81.4792 33.6334 81.2486 33.6632 81.0171 33.6623C80.4322 33.6627 79.8635 33.4698 79.3994 33.1138C78.9353 32.7577 78.6018 32.2584 78.4507 31.6933C77.0147 26.1852 74.1358 21.1597 70.1108 17.1347C66.0859 13.1097 61.0603 10.2309 55.5523 8.79483C55.2151 8.70495 54.899 8.54949 54.622 8.33736C54.345 8.12522 54.1125 7.86056 53.9379 7.55851C53.7632 7.25646 53.6498 6.92295 53.6042 6.57704C53.5585 6.23113 53.5814 5.87961 53.6717 5.54259ZM52.0124 22.9543C58.4505 24.6711 62.5745 28.795 64.2913 35.2331C64.4424 35.7982 64.7759 36.2976 65.24 36.6536C65.7041 37.0097 66.2728 37.2025 66.8577 37.2022C67.0892 37.203 67.3198 37.1733 67.5435 37.1137C67.8807 37.0238 68.1968 36.8683 68.4738 36.6562C68.7508 36.4441 68.9833 36.1794 69.1579 35.8774C69.3326 35.5753 69.446 35.2418 69.4917 34.8959C69.5373 34.55 69.5144 34.1985 69.4241 33.8614C67.2117 25.5826 61.663 20.0339 53.3841 17.8215C53.0471 17.7314 52.6956 17.7086 52.3498 17.7544C52.004 17.8001 51.6705 17.9135 51.3685 18.0882C51.0665 18.2628 50.8019 18.4952 50.5897 18.7721C50.3775 19.049 50.2219 19.365 50.1319 19.702C50.0418 20.039 50.019 20.3905 50.0648 20.7363C50.1105 21.0822 50.224 21.4156 50.3986 21.7176C50.5732 22.0196 50.8056 22.2843 51.0825 22.4964C51.3594 22.7086 51.6754 22.8642 52.0124 22.9543ZM87.1632 65.875C86.4051 71.6593 83.5665 76.9695 79.178 80.8132C74.7896 84.6569 69.1516 86.7709 63.3178 86.7602C28.6715 86.7602 0.485396 58.5741 0.485396 23.9277C0.47422 18.096 2.58639 12.4596 6.42736 8.07146C10.2683 3.68328 15.5754 0.843431 21.3573 0.0823595C22.6882 -0.0793872 24.0358 0.195055 25.1975 0.864469C26.3592 1.53388 27.2723 2.56213 27.7998 3.79478L37.1362 24.6357C37.5484 25.5792 37.719 26.6105 37.6325 27.6365C37.5459 28.6625 37.205 29.6507 36.6406 30.5118C36.5837 30.5995 36.5216 30.6837 36.4548 30.7641L27.1317 41.8527C27.0751 41.9676 27.0456 42.094 27.0456 42.2221C27.0456 42.3503 27.0751 42.4767 27.1317 42.5916C30.5211 49.5297 37.7955 56.751 44.8309 60.136C44.9484 60.1896 45.0767 60.2151 45.2058 60.2105C45.3348 60.2058 45.461 60.1713 45.5743 60.1095L56.4992 50.8173C56.5772 50.7495 56.66 50.6874 56.747 50.6315C57.6043 50.0599 58.5906 49.7112 59.6167 49.617C60.6427 49.5227 61.676 49.6859 62.6231 50.0917L83.526 59.459C84.7422 59.9981 85.7526 60.9143 86.4077 62.0722C87.0628 63.2301 87.3277 64.5681 87.1632 65.8883V65.875ZM81.9021 65.2201C81.9169 65.0351 81.8732 64.8501 81.7771 64.6913C81.681 64.5325 81.5375 64.4079 81.3667 64.3352L60.4594 54.9678C60.3452 54.9237 60.2228 54.9049 60.1006 54.9125C59.9784 54.9202 59.8593 54.9541 59.7514 55.0121L48.831 64.3042C48.7513 64.3706 48.6673 64.4325 48.5832 64.49C47.6924 65.084 46.6629 65.437 45.595 65.5146C44.5272 65.5921 43.4575 65.3916 42.4902 64.9325C34.3662 61.0077 26.2688 52.9855 22.344 44.9368C21.8824 43.9751 21.6769 42.9106 21.7474 41.8462C21.818 40.7819 22.1622 39.7538 22.7467 38.8615C22.8036 38.7727 22.8672 38.6884 22.9369 38.6093L32.2512 27.5074C32.3044 27.3915 32.332 27.2655 32.332 27.1379C32.332 27.0104 32.3044 26.8843 32.2512 26.7684L22.9369 5.92312C22.8754 5.75572 22.7648 5.6108 22.6195 5.50736C22.4742 5.40393 22.3011 5.3468 22.1228 5.34347H22.021C17.5207 5.94211 13.3921 8.15829 10.4063 11.5782C7.42038 14.998 5.78133 19.3878 5.79518 23.9277C5.79518 55.6448 31.6007 81.4504 63.3178 81.4504C67.8584 81.4641 72.2487 79.8244 75.6687 76.8376C79.0887 73.8509 81.3044 69.7212 81.9021 65.2201Z" fill="#017867"/>
</svg>
