<svg width="49" height="49" viewBox="0 0 49 49" fill="none" xmlns="http://www.w3.org/2000/svg">
<g clip-path="url(#clip0_135_919)">
<path d="M0.824219 43.1826C1.19345 46.1365 3.77807 48.4995 6.80576 48.4995H42.0304C45.1319 48.4995 47.6427 46.2103 48.0119 43.1826H0.824219ZM24.455 47.0226C23.7165 47.0226 23.1996 46.4318 23.1996 45.7672C23.1996 45.1026 23.7904 44.5118 24.455 44.5118C25.1935 44.5118 25.7104 45.1026 25.7104 45.7672C25.7104 46.4318 25.1935 47.0226 24.455 47.0226Z" fill="#FBFDFC"/>
<path d="M6.43673 10.7642H6.80596V41.7795H3.1875V13.9395C3.1875 12.1672 4.59058 10.7642 6.43673 10.7642Z" fill="#FBFDFC"/>
<path d="M45.723 13.9397V41.7058H42.1045V10.6904H42.4737C42.6214 10.6904 42.843 10.6904 42.9906 10.7643C44.5414 10.9858 45.723 12.3889 45.723 13.9397Z" fill="#FBFDFC"/>
<path d="M24.6033 33.3609L24.4556 32.9917L24.3079 33.3609C24.234 33.6563 23.9387 33.8779 23.5694 33.8779H23.2002L23.4956 34.0994C23.791 34.3209 23.8648 34.6163 23.791 34.9117L23.7171 35.2809L24.0125 35.0594C24.3079 34.8379 24.6033 34.8379 24.8987 35.0594L25.194 35.2809L25.0463 34.9117C24.9725 34.6163 25.0464 34.2471 25.3417 34.0994L25.6371 33.8779H25.2679C24.9725 33.8779 24.6771 33.6563 24.6033 33.3609Z" fill="#FBFDFC"/>
<path d="M14.8554 32.9917C14.7815 33.0655 14.7077 33.8779 14.0431 33.8779H13.6738L13.9692 34.0994C14.2646 34.3209 14.3384 34.6163 14.2646 34.9117L14.1169 35.2809L14.4123 35.0594C15.0031 34.6163 15.4461 35.2071 15.5938 35.2809L15.4461 34.9117C15.2246 34.2471 15.9631 33.9517 16.0369 33.8779H15.6677C15.0031 33.8779 14.9292 33.0655 14.8554 32.9917Z" fill="#FBFDFC"/>
<path d="M43.0649 10.7643H42.1787V10.6904H42.5479C42.6956 10.7643 42.8433 10.7643 43.0649 10.7643Z" fill="#FBFDFC"/>
<path d="M31.8398 0.942383V9.287H40.1845L31.8398 0.942383Z" fill="#FBFDFC"/>
<path d="M31.1017 10.7641C30.7324 10.7641 30.3632 10.4687 30.3632 10.0257V0.499512H9.02166C8.57859 0.499512 8.2832 0.868742 8.2832 1.23797V41.7057H40.6278V10.7641H31.1017ZM12.8617 6.70259H26.9663C27.3355 6.70259 27.7047 6.99797 27.7047 7.44105C27.7047 7.88413 27.3355 8.17951 26.9663 8.17951H12.8617C12.4186 8.17951 12.1232 7.88413 12.1232 7.44105C12.1232 6.99797 12.4924 6.70259 12.8617 6.70259ZM12.8617 15.0472H36.0494C36.4924 15.0472 36.7878 15.3426 36.7878 15.7857C36.7878 16.1549 36.4924 16.5241 36.0494 16.5241H12.8617C12.4186 16.5241 12.1232 16.1549 12.1232 15.7857C12.1232 15.3426 12.4924 15.0472 12.8617 15.0472ZM12.8617 23.318H36.0494C36.4924 23.318 36.7878 23.6872 36.7878 24.0564C36.7878 24.4995 36.4924 24.7949 36.0494 24.7949H12.8617C12.4186 24.7949 12.1232 24.4995 12.1232 24.0564C12.1232 23.6872 12.4924 23.318 12.8617 23.318ZM18.7694 33.7303L17.0709 34.9857L17.7355 36.9795C17.8094 37.2749 17.7355 37.6441 17.4401 37.7918C17.1447 38.0134 16.8494 37.9395 16.554 37.7918L14.8555 36.5364L13.1571 37.7918C12.8617 38.0134 12.5663 38.0134 12.2709 37.7918C11.9755 37.5703 11.9017 37.2749 11.9755 36.9795L12.6401 34.9857L10.9417 33.7303C10.7201 33.5087 10.5724 33.2134 10.6463 32.918C10.7201 32.6226 11.0155 32.4011 11.3109 32.4011H13.4524L14.117 30.4072C14.1909 30.1118 14.4863 29.8903 14.8555 29.8903C15.1509 29.8903 15.4463 30.1118 15.5201 30.4072L16.1847 32.4011H18.3263C18.6217 32.4011 18.9171 32.6226 19.0647 32.918C19.1386 33.2134 19.0647 33.5087 18.7694 33.7303ZM28.3694 33.7303L26.6709 34.9857L27.3355 36.9795C27.4094 37.2749 27.3355 37.6441 27.0401 37.7918C26.8186 38.0134 26.4494 37.9395 26.154 37.7918L24.4555 36.5364L22.7571 37.7918C22.4617 38.0134 22.1663 38.0134 21.8709 37.7918C21.5755 37.5703 21.5017 37.2749 21.5755 36.9795L22.2401 34.9857L20.5417 33.7303C20.2463 33.5087 20.1724 33.2134 20.2463 32.918C20.3201 32.6226 20.6155 32.4011 20.9847 32.4011H23.1263L23.7909 30.4072C23.8647 30.1118 24.1601 29.8903 24.5294 29.8903C24.8247 29.8903 25.1201 30.1118 25.2678 30.4072L25.9324 32.4011H28.074C28.3694 32.4011 28.6647 32.6226 28.7386 32.918C28.7386 33.2134 28.6647 33.5087 28.3694 33.7303ZM37.9694 33.7303L36.2709 34.9857L36.9355 36.9795C37.0094 37.2749 36.9355 37.6441 36.6401 37.7918C36.4186 38.0134 36.0494 38.0134 35.754 37.7918L34.0555 36.5364L32.357 37.7918C32.1355 37.9395 31.7663 38.0134 31.4709 37.7918C31.2494 37.5703 31.1017 37.2749 31.1755 36.9795L31.8401 34.9857L30.1417 33.7303C29.8463 33.5087 29.7724 33.2134 29.8463 32.918C29.9201 32.6226 30.2155 32.4011 30.5109 32.4011H32.6524L33.3171 30.4072C33.3909 30.1118 33.6863 29.8903 34.0555 29.8903C34.3509 29.8903 34.6463 30.1118 34.794 30.4072L35.4586 32.4011H37.6001C37.8955 32.4011 38.1909 32.6226 38.3386 32.918C38.3386 33.2134 38.1909 33.5087 37.9694 33.7303Z" fill="#FBFDFC"/>
<path d="M34.13 33.3609L34.0562 32.9917L33.9085 33.3609C33.8346 33.6563 33.5392 33.8779 33.17 33.8779H32.8008L33.0962 34.0994C33.3916 34.3209 33.4654 34.6163 33.3915 34.9117L33.3177 35.2809L33.6131 35.0594C33.7608 34.9855 33.9085 34.9117 34.0562 34.9117C34.2039 34.9117 34.3515 34.9855 34.4992 35.0594L34.7946 35.2809L34.6469 34.9117C34.5731 34.6163 34.6469 34.2471 34.9423 34.0994L35.2377 33.8779H34.8685C34.5731 33.8779 34.2777 33.6563 34.13 33.3609Z" fill="#FBFDFC"/>
</g>
<defs>
<clipPath id="clip0_135_919">
<rect width="48" height="48" fill="white" transform="translate(0.417969 0.499512)"/>
</clipPath>
</defs>
</svg>
