<svg width="29" height="29" viewBox="0 0 29 29" fill="none" xmlns="http://www.w3.org/2000/svg">
<path opacity="0.7" d="M26.2047 28.2025L16.6101 18.608C15.8487 19.2172 14.973 19.6994 13.9831 20.0548C12.9932 20.4101 11.9398 20.5878 10.823 20.5878C8.05628 20.5878 5.71501 19.6299 3.79914 17.714C1.88227 15.7971 0.923828 13.4554 0.923828 10.6887C0.923828 7.922 1.88227 5.58022 3.79914 3.66334C5.71501 1.74748 8.05628 0.789551 10.823 0.789551C13.5896 0.789551 15.9314 1.74748 17.8483 3.66334C19.7642 5.58022 20.7221 7.922 20.7221 10.6887C20.7221 11.8055 20.5444 12.8589 20.1891 13.8488C19.8337 14.8387 19.3514 15.7144 18.7423 16.4759L28.3368 26.0704L26.2047 28.2025ZM10.823 17.5419C12.7266 17.5419 14.345 16.8759 15.6781 15.5438C17.0102 14.2107 17.6762 12.5924 17.6762 10.6887C17.6762 8.785 17.0102 7.16662 15.6781 5.83354C14.345 4.50147 12.7266 3.83544 10.823 3.83544C8.91928 3.83544 7.3009 4.50147 5.96781 5.83354C4.63575 7.16662 3.96971 8.785 3.96971 10.6887C3.96971 12.5924 4.63575 14.2107 5.96781 15.5438C7.3009 16.8759 8.91928 17.5419 10.823 17.5419Z" fill="#4B4B4B"/>
</svg>
