<svg width="45" height="45" viewBox="0 0 45 45" fill="none" xmlns="http://www.w3.org/2000/svg">
<path d="M22.7556 0.824707C10.6174 0.824707 0.742188 10.6999 0.742188 22.8381C0.742188 34.9763 10.6174 44.8515 22.7556 44.8515C34.8938 44.8515 44.769 34.9763 44.769 22.8381C44.769 10.6999 34.8938 0.824707 22.7556 0.824707ZM22.7556 40.4489C13.0455 40.4489 5.14487 32.5482 5.14487 22.8381C5.14487 13.128 13.0455 5.22739 22.7556 5.22739C32.4657 5.22739 40.3663 13.128 40.3663 22.8381C40.3663 32.5482 32.4657 40.4489 22.7556 40.4489Z" fill="#FBFDFC"/>
<path d="M15.0509 20.6364C16.8744 20.6364 18.3527 19.1581 18.3527 17.3346C18.3527 15.511 16.8744 14.0327 15.0509 14.0327C13.2273 14.0327 11.749 15.511 11.749 17.3346C11.749 19.1581 13.2273 20.6364 15.0509 20.6364Z" fill="#FBFDFC"/>
<path d="M30.4446 20.6056C32.2597 20.6056 33.7311 19.1342 33.7311 17.3192C33.7311 15.5041 32.2597 14.0327 30.4446 14.0327C28.6296 14.0327 27.1582 15.5041 27.1582 17.3192C27.1582 19.1342 28.6296 20.6056 30.4446 20.6056Z" fill="#FBFDFC"/>
<path d="M22.7559 36.0463C33.7626 36.0463 35.964 25.0396 35.964 25.0396H9.54785C9.54785 25.0396 11.7492 36.0463 22.7559 36.0463Z" fill="#FBFDFC"/>
</svg>
