<svg width="34" height="34" viewBox="0 0 34 34" fill="none" xmlns="http://www.w3.org/2000/svg">
<path d="M21.7652 18.8319C22.5049 19.0646 23.2137 19.3862 23.876 19.7895L23.8336 19.7649C24.5573 20.0863 25.1824 20.4625 25.7529 20.9044L25.7324 20.8894C25.7597 20.9728 25.7761 21.0672 25.7761 21.1671L25.7748 21.2108V21.2095C25.7543 21.7963 25.6243 22.3477 25.404 22.8497L25.415 22.821C25.099 23.4544 24.5723 23.9427 23.928 24.2027L23.9088 24.2095C23.2421 24.5581 22.5049 24.7503 21.7529 24.7718H21.7446C20.3093 24.5872 18.9221 24.1313 17.6571 23.4284L17.7159 23.4585C16.3722 22.8498 15.1503 22.002 14.1098 20.9564L14.1085 20.955C12.9735 19.7734 11.9445 18.4944 11.0332 17.1328L10.9689 17.0316C10.0645 15.8495 9.53987 14.4209 9.4641 12.9344L9.46273 12.9166V12.747C9.4828 12.1121 9.6319 11.4878 9.90095 10.9123C10.17 10.3368 10.5534 9.82211 11.0277 9.39952L11.0318 9.39542C11.3248 9.10346 11.7195 8.93629 12.1331 8.92893H12.1344C12.2726 8.93303 12.4053 8.94397 12.5339 8.96313L12.5161 8.96039C12.6351 8.97817 12.7733 8.98912 12.9156 8.99185H12.9197C13.1188 8.97249 13.3186 9.02172 13.486 9.13139L13.4833 9.13002C13.6297 9.29145 13.7418 9.48707 13.8089 9.70185L13.8116 9.71279C13.9247 9.99551 14.1582 10.6175 14.512 11.5787C14.6967 12.0083 14.8773 12.5377 15.0223 13.0822L15.0414 13.1684C14.9428 13.6445 14.6858 14.0732 14.3123 14.3845L14.3082 14.3873C13.8203 14.9034 13.5763 15.2318 13.5763 15.3722C13.5815 15.4874 13.62 15.5986 13.6871 15.6923L13.6857 15.691C14.2148 16.7847 14.9464 17.7684 15.8417 18.5898L15.8486 18.5966C16.7858 19.4409 17.8366 20.15 18.9703 20.7033L19.051 20.7389C19.1897 20.8288 19.3497 20.8803 19.5148 20.888H19.5175C19.73 20.888 20.1122 20.5451 20.6639 19.8593C21.2157 19.1734 21.5823 18.8305 21.7638 18.8305L21.7652 18.8319ZM17.4601 30.0714H17.4902C19.2864 30.074 21.0635 29.7017 22.7077 28.9784L22.6243 29.0112C25.8473 27.6514 28.3603 25.1384 29.6873 22.0015L29.7201 21.9154C30.3904 20.3928 30.7803 18.6171 30.7803 16.7512C30.7803 14.8852 30.3904 13.1095 29.6873 11.5021L29.7201 11.587C28.3603 8.36394 25.8473 5.85092 22.7105 4.52396L22.6243 4.49113C21.1017 3.82081 19.326 3.43093 17.4601 3.43093C15.5941 3.43093 13.8184 3.82081 12.211 4.52396L12.2959 4.49113C9.07285 5.85092 6.55983 8.36394 5.23287 11.5008L5.20004 11.587C4.49469 13.2227 4.1338 14.9862 4.13983 16.7676C4.13542 19.584 5.03657 22.3273 6.71031 24.5925L6.68432 24.557L5.00851 29.4996L10.1413 27.8662C12.2854 29.3103 14.8133 30.0785 17.3985 30.0714H17.4628H17.4601ZM17.4601 0.760591H17.5052C19.7323 0.760591 21.85 1.22845 23.7638 2.0725L23.6639 2.03283C27.5286 3.67033 30.5423 6.68404 32.1401 10.4447L32.1798 10.5486C32.9841 12.3777 33.452 14.5104 33.452 16.7525C33.452 18.9947 32.9841 21.1274 32.1401 23.0576L32.1798 22.9564C30.5423 26.821 27.5286 29.8347 23.7679 31.4325L23.6639 31.4722C21.8486 32.2766 19.7309 32.7445 17.5038 32.7445H17.4573H17.4601H17.3876C14.5708 32.7445 11.9265 32.0044 9.6392 30.7089L9.71718 30.7499L0.873047 33.5926L3.75816 25.0029C2.25215 22.5256 1.45966 19.6804 1.46813 16.7813C1.46813 14.5295 1.93598 12.3872 2.78004 10.446L2.74037 10.5486C4.37787 6.68404 7.39157 3.67033 11.1522 2.0725L11.2562 2.03283C13.1992 1.18645 15.2969 0.753202 17.4163 0.760591H17.4601Z" fill="#1FAF38"/>
</svg>
