<svg width="25" height="26" viewBox="0 0 25 26" fill="none" xmlns="http://www.w3.org/2000/svg">
<g clip-path="url(#clip0_208_6820)">
<path d="M15.9755 14.1601C16.5225 14.3322 17.0466 14.57 17.5364 14.8683L17.505 14.85C18.0401 15.0878 18.5024 15.366 18.9243 15.6927L18.9091 15.6816C18.9293 15.7433 18.9415 15.8131 18.9415 15.8869L18.9405 15.9193V15.9183C18.9253 16.3523 18.8292 16.7599 18.6663 17.1312L18.6744 17.11C18.4407 17.5783 18.0513 17.9395 17.5748 18.1317L17.5606 18.1367C17.0676 18.3945 16.5225 18.5367 15.9664 18.5525H15.9603C14.8989 18.416 13.8731 18.0789 12.9376 17.5591L12.9811 17.5814C11.9875 17.1312 11.084 16.5043 10.3146 15.7311L10.3136 15.7301C9.47433 14.8563 8.71339 13.9106 8.0395 12.9037L7.99195 12.8289C7.32321 11.9547 6.93523 10.8983 6.87919 9.79914L6.87818 9.78599V9.66055C6.89302 9.19101 7.00328 8.72941 7.20223 8.30385C7.40119 7.87828 7.68468 7.49767 8.03545 7.18518L8.03848 7.18214C8.25516 6.96625 8.547 6.84263 8.85282 6.83719H8.85383C8.956 6.84022 9.05413 6.84831 9.14922 6.86248L9.13607 6.86045C9.22408 6.8736 9.32625 6.8817 9.43145 6.88372H9.43449C9.58177 6.8694 9.72952 6.9058 9.85329 6.9869L9.85127 6.98589C9.95951 7.10526 10.0425 7.24992 10.092 7.40874L10.094 7.41683C10.1777 7.6259 10.3503 8.08583 10.612 8.79665C10.7486 9.11429 10.8821 9.50578 10.9893 9.90839L11.0035 9.97213C10.9305 10.3242 10.7405 10.6412 10.4643 10.8714L10.4613 10.8735C10.1005 11.2552 9.92005 11.498 9.92005 11.6018C9.92392 11.687 9.95238 11.7692 10.002 11.8385L10.001 11.8375C10.3922 12.6463 10.9332 13.3737 11.5953 13.9811L11.6003 13.9861C12.2934 14.6105 13.0704 15.1349 13.9088 15.544L13.9685 15.5703C14.071 15.6368 14.1893 15.6749 14.3114 15.6806H14.3134C14.4706 15.6806 14.7531 15.427 15.1611 14.9198C15.5691 14.4127 15.8403 14.1591 15.9745 14.1591L15.9755 14.1601ZM12.792 22.4714H12.8142C14.1425 22.4733 15.4566 22.198 16.6725 21.6632L16.6108 21.6874C18.9941 20.6819 20.8524 18.8236 21.8336 16.504L21.8579 16.4403C22.3536 15.3144 22.6419 14.0013 22.6419 12.6215C22.6419 11.2417 22.3536 9.92863 21.8336 8.74L21.8579 8.80272C20.8524 6.4194 18.9941 4.56109 16.6745 3.57985L16.6108 3.55557C15.4848 3.05989 14.1718 2.77158 12.792 2.77158C11.4122 2.77158 10.0991 3.05989 8.91048 3.57985L8.9732 3.55557C6.58988 4.56109 4.73157 6.4194 3.75033 8.73899L3.72605 8.80272C3.20447 10.0123 2.9376 11.3164 2.94206 12.6336C2.93879 14.7163 3.60517 16.7449 4.84285 18.42L4.82363 18.3937L3.58442 22.0486L7.37993 20.8407C8.96549 21.9086 10.8348 22.4767 12.7465 22.4714H12.794H12.792ZM12.792 0.796944H12.8254C14.4722 0.796944 16.0382 1.14291 17.4534 1.76706L17.3796 1.73773C20.2373 2.94861 22.4659 5.17716 23.6474 7.95804L23.6768 8.03492C24.2716 9.38742 24.6175 10.9645 24.6175 12.6225C24.6175 14.2805 24.2716 15.8576 23.6474 17.285L23.6768 17.2101C22.4659 20.0679 20.2373 22.2964 17.4564 23.478L17.3796 23.5073C16.0372 24.1021 14.4712 24.4481 12.8243 24.4481H12.79H12.792H12.7384C10.6555 24.4481 8.70007 23.9008 7.00868 22.9428L7.06634 22.9732L0.526367 25.0753L2.65982 18.7234C1.54617 16.8915 0.960152 14.7876 0.966412 12.6438C0.966412 10.9787 1.31238 9.3945 1.93653 7.95905L1.9072 8.03492C3.11808 5.17716 5.34663 2.94861 8.1275 1.76706L8.20439 1.73773C9.64119 1.11185 11.1924 0.79148 12.7596 0.796944H12.792Z" fill="#FBFDFC"/>
</g>
<defs>
<clipPath id="clip0_208_6820">
<rect width="24.2783" height="24.2783" fill="white" transform="translate(0.527344 0.796875)"/>
</clipPath>
</defs>
</svg>
